<svg aria-labelledby="nav-logo-id" fill="none" height="24" viewBox="0 0 113 24" width="113" xmlns="http://www.w3.org/2000/svg"><title id="nav-logo-id">Anima</title><path d="M10.8575 24L7.17005 0H3.68745L0 24H2.62902L3.17531 20H7.57977L8.1602 24H10.8575ZM5.36046 4.2735L7.23833 17.5385H3.51674L5.36046 4.2735Z" fill="white"></path><path d="M33.2746 24H36.6889V0.0683755H34.094V17.3333L30.1334 0.0683755H26.3777V24H28.9725V5.26496L33.2746 24Z" fill="white"></path><path d="M55.7042 0.0683755H52.9727V24H55.7042V0.0683755Z" fill="white"></path><path d="M82.3769 0.0683755L79.3381 18.9402L76.2994 0.0683755H71.9974V24H74.5922V4.20513L77.87 24H80.6697L83.9474 4.20513V24H86.6106V0.0683755H82.3769Z" fill="white"></path><path d="M113 24L109.313 0H105.83L102.143 24H104.772L105.318 20H109.722L110.303 24H113ZM107.503 4.2735L109.381 17.5385H105.659L107.503 4.2735Z" fill="white"></path></svg>