<svg width="24" height="24" viewBox="0 0 24 24" fill="none" xmlns="http://www.w3.org/2000/svg">
<path d="M22 12C22 14.6522 20.9464 17.1957 19.0711 19.0711C17.1957 20.9464 14.6522 22 12 22C9.34784 22 6.8043 20.9464 4.92893 19.0711C3.05357 17.1957 2 14.6522 2 12C2 11.8106 2.07525 11.6289 2.20921 11.4949C2.34316 11.361 2.52485 11.2857 2.71429 11.2857C2.90373 11.2857 3.08541 11.361 3.21936 11.4949C3.35332 11.6289 3.42857 11.8106 3.42857 12C3.42571 13.9129 4.06186 15.772 5.23604 17.2821C6.41022 18.7922 8.05516 19.8669 9.90977 20.3355C11.7644 20.8042 13.7224 20.6399 15.473 19.8689C17.2236 19.0978 18.6665 17.7641 19.5728 16.0795C20.479 14.3949 20.7965 12.4558 20.475 10.5702C20.1535 8.68446 19.2114 6.96017 17.7982 5.67097C16.385 4.38177 14.5817 3.60153 12.6745 3.45409C10.7673 3.30665 8.86546 3.80047 7.27091 4.85715H7.71429C7.90373 4.85715 8.08541 4.9324 8.21936 5.06636C8.35332 5.20031 8.42857 5.38199 8.42857 5.57143C8.42857 5.76087 8.35332 5.94256 8.21936 6.07651C8.08541 6.21046 7.90373 6.28572 7.71429 6.28572H5.57143C5.47761 6.28577 5.38471 6.26733 5.29802 6.23146C5.21133 6.19558 5.13257 6.14297 5.06623 6.07663C4.99989 6.01029 4.94728 5.93153 4.91141 5.84484C4.87553 5.75816 4.85709 5.66525 4.85714 5.57143V3.42858C4.85714 3.23914 4.9324 3.05746 5.06635 2.9235C5.20031 2.78955 5.38199 2.71429 5.57143 2.71429C5.76087 2.71429 5.94255 2.78955 6.0765 2.9235C6.21046 3.05746 6.28571 3.23914 6.28571 3.42858V3.79566C7.78484 2.75079 9.54167 2.13677 11.3653 2.02032C13.1889 1.90388 15.0096 2.28946 16.6294 3.13518C18.2493 3.98089 19.6063 5.25439 20.5532 6.81728C21.5 8.38017 22.0004 10.1727 22 12ZM18.4286 12C18.4286 13.2715 18.0515 14.5144 17.3452 15.5715C16.6388 16.6287 15.6348 17.4527 14.4601 17.9392C13.2854 18.4258 11.9929 18.5531 10.7458 18.3051C9.49883 18.057 8.35337 17.4447 7.45431 16.5457C6.55526 15.6466 5.943 14.5012 5.69495 13.2542C5.4469 12.0071 5.57421 10.7146 6.06077 9.5399C6.54734 8.36523 7.3713 7.36122 8.42848 6.65484C9.48565 5.94846 10.7285 5.57143 12 5.57143C13.7044 5.57329 15.3384 6.25119 16.5436 7.45637C17.7488 8.66156 18.4267 10.2956 18.4286 12ZM14.5391 12.8343L12.7143 11.6177V8.42858C12.7143 8.23914 12.639 8.05746 12.5051 7.9235C12.3711 7.78955 12.1894 7.71429 12 7.71429C11.8106 7.71429 11.6289 7.78955 11.4949 7.9235C11.361 8.05746 11.2857 8.23914 11.2857 8.42858V12C11.2857 12.1176 11.3148 12.2333 11.3703 12.337C11.4258 12.4407 11.506 12.5291 11.6038 12.5943L13.7467 14.0229C13.9043 14.1257 14.0961 14.1623 14.2805 14.1244C14.4649 14.0866 14.627 13.9776 14.7314 13.8209C14.8358 13.6643 14.8742 13.4728 14.8382 13.2881C14.8021 13.1033 14.6947 12.9402 14.5391 12.8343Z" fill="#BF9E7B"/>
</svg>
