<svg width="46" height="46" viewBox="0 0 46 46" fill="none" xmlns="http://www.w3.org/2000/svg">
<path d="M23.0163 0.000101863C35.7344 0.0385138 46.0007 10.3085 45.9997 22.992C45.9988 35.7204 35.6379 46.0588 22.9423 45.9997C10.2354 45.9417 -0.0336447 35.6313 8.28428e-05 22.9639C0.0328735 10.2701 10.3647 -0.0373732 23.0163 0.000101863Z" fill="#FFFCF8"/>
<path d="M33.0003 16.7105V26.2905C33.0003 29.0505 30.7603 31.2905 28.0003 31.2905H18.0003C17.5403 31.2905 17.1003 31.2305 16.6703 31.1105C16.0503 30.9405 15.8503 30.1505 16.3103 29.6905L26.9403 19.0605C27.1603 18.8405 27.4903 18.7905 27.8003 18.8505C28.1203 18.9105 28.4703 18.8205 28.7203 18.5805L31.2903 16.0005C32.2303 15.0605 33.0003 15.3705 33.0003 16.7105Z" fill="#19AA6E"/>
<path d="M25.64 18.3595L15.17 28.8295C14.69 29.3095 13.89 29.1895 13.57 28.5895C13.2 27.9095 13 27.1195 13 26.2895V16.7095C13 15.3695 13.77 15.0595 14.71 15.9995L17.29 18.5895C17.68 18.9695 18.32 18.9695 18.71 18.5895L22.29 14.9995C22.68 14.6095 23.32 14.6095 23.71 14.9995L25.65 16.9395C26.03 17.3295 26.03 17.9695 25.64 18.3595Z" fill="#19AA6E"/>
<path d="M14.7961 31.5083C14.7996 32.0318 14.4036 32.4341 13.8829 32.4383C13.3433 32.4424 12.9333 32.0374 12.9375 31.5041C12.9417 30.9854 13.344 30.5908 13.8696 30.5908C14.396 30.5908 14.7933 30.9847 14.7968 31.5083H14.7961Z" fill="#19AA6E"/>
</svg>
