<svg width="46" height="46" viewBox="0 0 46 46" fill="none" xmlns="http://www.w3.org/2000/svg">
<path d="M27.2294 38.5866C35.8967 36.1907 40.9806 27.2221 38.5846 18.5549C36.1887 9.88758 27.2202 4.80365 18.5529 7.1996C9.8856 9.59554 4.80167 18.5641 7.19762 27.2313C9.59356 35.8986 18.5621 40.9826 27.2294 38.5866Z" fill="#627EEA"/>
<path d="M20.1328 10.9873L22.5378 19.6874L30.7995 20.9405L20.1328 10.9873Z" fill="white" fill-opacity="0.602"/>
<path d="M20.1278 10.988L16.0868 25.0069L22.5328 19.6881L20.1278 10.988Z" fill="white"/>
<path d="M25.0081 28.6124L26.6423 34.5239L31.1864 22.3097L25.0081 28.6124Z" fill="white" fill-opacity="0.602"/>
<path d="M26.6373 34.5244L25.0028 28.6118L16.4688 26.3772L26.6373 34.5244Z" fill="white"/>
<path d="M24.6271 27.2456L30.8002 20.9433L22.5391 19.6921L24.6271 27.2456Z" fill="white" fill-opacity="0.2"/>
<path d="M16.0875 25.0095L24.6221 27.2461L22.5341 19.6926L16.0875 25.0095Z" fill="white" fill-opacity="0.602"/>
</svg>
