<svg width="46" height="46" viewBox="0 0 46 46" fill="none" xmlns="http://www.w3.org/2000/svg">
<path d="M23.0163 0.000101863C35.7344 0.0385138 46.0007 10.3085 45.9997 22.992C45.9988 35.7204 35.6379 46.0588 22.9423 45.9997C10.2354 45.9417 -0.0336447 35.6313 8.28428e-05 22.9639C0.0328735 10.2701 10.3647 -0.0373732 23.0163 0.000101863Z" fill="#FFFCF8"/>
<path d="M14.7961 31.5083C14.7996 32.0318 14.4036 32.4341 13.8829 32.4383C13.3433 32.4424 12.9333 32.0374 12.9375 31.5041C12.9417 30.9854 13.344 30.5908 13.8696 30.5908C14.396 30.5908 14.7933 30.9847 14.7968 31.5083H14.7961Z" fill="#19AA6E"/>
<path d="M26.4145 18.3496C26.125 18.3498 25.8446 18.4503 25.621 18.634C25.3973 18.8178 25.2443 19.0733 25.188 19.3573C25.1317 19.6412 25.1755 19.9358 25.3121 20.191C25.4486 20.4462 25.6695 20.6462 25.9369 20.7568C26.2044 20.8674 26.5019 20.8819 26.7789 20.7978C27.0558 20.7136 27.295 20.5361 27.4557 20.2953C27.6164 20.0546 27.6887 19.7656 27.6602 19.4776C27.6317 19.1895 27.5042 18.9203 27.2995 18.7157C27.1834 18.5994 27.0454 18.5071 26.8935 18.4443C26.7416 18.3815 26.5788 18.3493 26.4145 18.3496Z" fill="#19AA6E"/>
<path d="M33.3792 13.3465C33.379 13.3451 33.379 13.3436 33.3792 13.3422C33.3396 13.1685 33.2522 13.0093 33.1269 12.8825C33.0015 12.7558 32.8433 12.6666 32.67 12.6251C31.2731 12.2843 29.0756 12.6476 26.6405 13.6226C24.1861 14.6069 21.8864 16.06 20.332 17.6172C19.8338 18.1128 19.371 18.6427 18.9469 19.203C17.9002 19.1561 16.9781 19.3052 16.2014 19.6441C13.4948 20.8352 12.7219 23.8835 12.5161 25.135C12.4863 25.3129 12.498 25.4952 12.5502 25.6678C12.6024 25.8404 12.6937 25.9986 12.817 26.1301C12.9403 26.2616 13.0923 26.363 13.2612 26.4261C13.4301 26.4893 13.6112 26.5127 13.7906 26.4944H13.7967L16.8117 26.1654C16.8155 26.2038 16.8197 26.239 16.823 26.2713C16.8617 26.6387 17.0255 26.9816 17.287 27.2425L18.7584 28.7149C19.019 28.9767 19.3618 29.1408 19.7292 29.1794L19.83 29.1902L19.5019 32.2015V32.2075C19.4851 32.3697 19.5024 32.5336 19.5525 32.6887C19.6027 32.8439 19.6847 32.9868 19.7933 33.1085C19.9019 33.2301 20.0346 33.3277 20.1831 33.3951C20.3315 33.4625 20.4924 33.4982 20.6555 33.4999C20.7206 33.4999 20.7857 33.4946 20.85 33.484C22.1086 33.2815 25.1555 32.5179 26.3433 29.7968C26.6794 29.0252 26.828 28.1069 26.7862 27.0621C27.3491 26.6389 27.8809 26.176 28.3777 25.6769C29.9447 24.1179 31.4025 21.8369 32.3766 19.4182C33.3464 17.0107 33.7116 14.7968 33.3792 13.3465ZM28.3608 21.544C27.9756 21.9295 27.4848 22.1922 26.9503 22.2987C26.4158 22.4052 25.8618 22.3508 25.3582 22.1424C24.8547 21.934 24.4243 21.5809 24.1214 21.1278C23.8186 20.6747 23.657 20.142 23.657 19.597C23.657 19.052 23.8186 18.5193 24.1214 18.0662C24.4243 17.6131 24.8547 17.26 25.3582 17.0516C25.8618 16.8432 26.4158 16.7888 26.9503 16.8953C27.4848 17.0018 27.9756 17.2645 28.3608 17.65C28.6189 17.9043 28.8239 18.2074 28.9639 18.5417C29.1038 18.8759 29.1759 19.2346 29.1759 19.597C29.1759 19.9594 29.1038 20.3181 28.9639 20.6523C28.8239 20.9866 28.6189 21.2897 28.3608 21.544Z" fill="#19AA6E"/>
<path d="M18.5907 29.1143C18.4093 29.0918 18.226 29.1363 18.0751 29.2395C17.7756 29.4443 17.4746 29.6468 17.1709 29.8442C16.5563 30.2435 15.8213 29.5423 16.1865 28.9067L16.756 27.9223C16.8375 27.8032 16.8828 27.6631 16.8866 27.5189C16.8904 27.3746 16.8526 27.2324 16.7775 27.1091C16.7025 26.9859 16.5936 26.8869 16.4637 26.824C16.3338 26.7611 16.1886 26.737 16.0454 26.7546C15.4133 26.8346 14.8257 27.1225 14.3752 27.5731C14.2037 27.7451 13.682 28.2673 13.4012 30.2571C13.3213 30.8287 13.2709 31.404 13.2502 31.9807C13.2477 32.0808 13.2652 32.1804 13.3017 32.2736C13.3383 32.3669 13.3931 32.4518 13.463 32.5235C13.5329 32.5952 13.6165 32.6522 13.7087 32.6911C13.801 32.73 13.9001 32.75 14.0002 32.7499H14.019C14.5962 32.7295 15.1719 32.6794 15.744 32.5999C17.7348 32.3187 18.257 31.7965 18.4285 31.6249C18.8812 31.1743 19.1684 30.5839 19.2437 29.9496C19.2678 29.7523 19.2125 29.5534 19.0901 29.3968C18.9677 29.2402 18.788 29.1386 18.5907 29.1143Z" fill="#19AA6E"/>
</svg>
