<svg width="46" height="46" viewBox="0 0 46 46" fill="none" xmlns="http://www.w3.org/2000/svg">
<path d="M23.0163 0.000101863C35.7344 0.0385138 46.0007 10.3085 45.9997 22.992C45.9988 35.7204 35.6379 46.0588 22.9423 45.9997C10.2354 45.9417 -0.0336447 35.6313 8.28428e-05 22.9639C0.0328735 10.2701 10.3647 -0.0373732 23.0163 0.000101863Z" fill="#FFFCF8"/>
<path d="M12.0323 20.9093C13.7724 20.5601 15.3061 20.848 16.5895 21.7654C17.3766 22.328 18.1177 22.9492 18.7918 23.6108C20.3381 25.1285 22.0544 26.6963 24.1285 27.8815C25.8846 28.8861 27.5954 29.4724 29.3591 29.6759C32.9257 30.088 36.2797 28.1652 37.7033 24.8935C37.7556 24.7736 37.8838 24.4383 38.0093 24.096C38.1376 23.7467 38.2387 23.3828 38.3112 23.0147L38.5127 21.9836C37.5192 22.4089 36.5788 22.8244 35.6258 23.2002C34.6609 23.5808 33.6612 23.8192 32.6071 23.7412C31.5768 23.6652 30.667 23.2413 29.8499 22.6696C28.2625 21.5591 26.7086 20.399 25.1686 19.223C23.736 18.1291 22.3486 16.9781 20.6713 16.2531C18.9633 15.5141 17.1919 15.1272 15.3361 15.3684C12.5928 15.7247 10.4867 17.1085 9.0492 19.4753C8.50125 20.3781 8.11154 21.3451 8 22.4033C9.15517 21.8247 10.5216 21.2126 12.033 20.9093H12.0323Z" fill="#19AA6E"/>
<path d="M30.3122 30.4247C29.9692 30.4247 29.6241 30.4052 29.2755 30.3648C27.417 30.1507 25.6197 29.5352 23.7806 28.4839C21.6383 27.2597 19.8815 25.6562 18.3025 24.1058C17.6541 23.4693 16.941 22.8718 16.1832 22.3302C15.0461 21.5173 13.732 21.2747 12.1662 21.5898C10.9588 21.8324 9.83635 22.289 8.8457 22.761C8.98653 22.7917 9.12665 22.8251 9.26399 22.8684C10.6039 23.2894 11.7667 24.0465 12.8473 24.9124C14.4926 26.2314 16.0814 27.6208 17.7225 28.9454C20.3354 31.0563 23.2229 32.5726 26.6362 32.878C28.9033 33.0808 31.0428 32.6437 33.0032 31.4774C34.8722 30.3648 36.2303 28.8603 37.2042 27.0673C35.5645 29.1726 33.0429 30.4247 30.3129 30.4247H30.3122Z" fill="#19AA6E"/>
<path d="M31.6327 13C31.74 13.1603 31.8258 13.2475 31.8627 13.3514C31.9903 13.7139 32.1074 14.0799 32.2169 14.4487C32.3298 14.8286 32.5696 15.067 32.9503 15.1772C33.3302 15.2866 33.7095 15.4017 34.0832 15.5313C34.1759 15.5634 34.2449 15.6624 34.3244 15.7307C34.2435 15.8102 34.1766 15.9245 34.079 15.9622C33.7527 16.0884 33.4195 16.2041 33.0814 16.2912C32.6052 16.4139 32.3187 16.6921 32.2036 17.1745C32.12 17.5259 32.0015 17.8696 31.8788 18.2098C31.8467 18.2976 31.74 18.3583 31.6668 18.4322C31.5943 18.3576 31.4891 18.2955 31.4563 18.207C31.319 17.8361 31.1949 17.4603 31.0819 17.0811C30.969 16.7004 30.7341 16.462 30.3492 16.3554C29.9679 16.2501 29.5887 16.1337 29.2157 16.004C29.123 15.9719 29.056 15.8681 28.9766 15.7969C29.0574 15.7161 29.1237 15.5976 29.2213 15.5613C29.581 15.4275 29.9491 15.3138 30.3179 15.2051C30.7097 15.0893 30.9585 14.8495 31.0666 14.4494C31.1663 14.0785 31.2834 13.7118 31.4068 13.3479C31.4424 13.2447 31.5281 13.1583 31.6334 13H31.6327Z" fill="#19AA6E"/>
<path d="M14.7961 31.5083C14.7996 32.0318 14.4036 32.4341 13.8829 32.4383C13.3433 32.4424 12.9333 32.0374 12.9375 31.5041C12.9417 30.9854 13.344 30.5908 13.8696 30.5908C14.396 30.5908 14.7933 30.9847 14.7968 31.5083H14.7961Z" fill="#19AA6E"/>
</svg>
