<svg width="41" height="41" viewBox="0 0 41 41" fill="none" xmlns="http://www.w3.org/2000/svg">
<path d="M16.5641 5.19706C25.2493 2.82438 34.1914 7.8955 36.5831 16.55C38.9833 25.2351 33.8638 34.2436 25.1901 36.598C16.5089 38.9551 7.55722 33.857 5.19088 25.2072C2.81896 16.5398 7.9245 7.55783 16.5641 5.19706Z" fill="#29296A"/>
<path d="M10.0889 21.9341C11.5959 21.1728 13.0753 21.048 14.4847 21.564C15.3491 21.8804 16.186 22.2621 16.9719 22.6979C18.7745 23.6976 20.7458 24.7002 22.948 25.2612C24.8129 25.7372 26.5303 25.8412 28.1992 25.5808C31.5741 25.0545 34.1622 22.4413 34.6382 19.0804C34.6558 18.9572 34.6884 18.6172 34.7167 18.2715C34.7458 17.9187 34.7462 17.5594 34.7194 17.2035L34.6428 16.2069C33.8396 16.8487 33.0826 17.4681 32.304 18.0542C31.5157 18.6478 30.6595 19.1199 29.6731 19.3155C28.709 19.507 27.7674 19.3489 26.8733 19.0318C25.1362 18.4159 23.4172 17.746 21.707 17.058C20.116 16.4181 18.5521 15.7144 16.8303 15.4747C15.0768 15.23 13.3544 15.3243 11.7138 16.0159C9.28863 17.0379 7.7082 18.8407 6.98999 21.3754C6.71638 22.3421 6.60414 23.3275 6.77011 24.3262C7.68269 23.5028 8.78048 22.5952 10.0895 21.934L10.0889 21.9341Z" fill="#FAFAFA"/>
<path d="M29.2698 26.0246C28.9553 26.1115 28.6339 26.1811 28.304 26.2324C26.5455 26.5072 24.7415 26.3983 22.7886 25.9005C20.5139 25.321 18.4965 24.296 16.6556 23.2746C15.8997 22.8553 15.0943 22.4882 14.2621 22.1836C13.0135 21.7264 11.747 21.8371 10.3911 22.5229C9.34536 23.0515 8.43191 23.7547 7.64315 24.4386C7.78006 24.431 7.91703 24.4262 8.05392 24.431C9.38931 24.4775 10.6475 24.8769 11.8578 25.397C13.7008 26.1894 15.5099 27.0607 17.3505 27.8593C20.2815 29.1327 23.3136 29.7911 26.5209 29.2059C28.6512 28.8173 30.5022 27.8741 32.0042 26.3077C33.436 24.8137 34.2999 23.0899 34.7385 21.1989C33.7686 23.5451 31.7738 25.3324 29.2705 26.0244L29.2698 26.0246Z" fill="#EC5D2C"/>
<path d="M26.0528 9.71417C26.1919 9.83399 26.2926 9.89216 26.3528 9.97804C26.5617 10.2781 26.7618 10.584 26.9557 10.8945C27.1555 11.2142 27.4359 11.3721 27.8128 11.3766C28.189 11.3806 28.5659 11.39 28.9414 11.4142C29.0346 11.4201 29.1229 11.4934 29.2131 11.5359C29.1591 11.6292 29.1267 11.751 29.0468 11.8103C28.7796 12.0087 28.5034 12.1993 28.2154 12.3649C27.8099 12.5981 27.6177 12.9258 27.6345 13.3973C27.6468 13.7407 27.6253 14.0859 27.599 14.429C27.5919 14.5176 27.5094 14.6003 27.461 14.6866C27.3756 14.6366 27.2634 14.6064 27.2109 14.5335C26.991 14.2282 26.7819 13.9151 26.5822 13.596C26.3822 13.2756 26.1063 13.1165 25.7264 13.1163C25.3501 13.1164 24.9728 13.1058 24.5979 13.0814C24.5048 13.0755 24.4171 12.9972 24.3262 12.9522C24.3798 12.8575 24.4105 12.732 24.4908 12.6741C24.7867 12.4601 25.0955 12.2626 25.4061 12.0694C25.736 11.864 25.9034 11.581 25.9011 11.1867C25.8985 10.8213 25.9129 10.4554 25.9338 10.0904C25.9403 9.98679 25.997 9.88579 26.0534 9.714L26.0528 9.71417Z" fill="#FAFAFA"/>
<path d="M15.304 30.9546C15.4399 31.4338 15.1788 31.903 14.7023 32.0389C14.2086 32.1795 13.7301 31.912 13.5987 31.4219C13.4711 30.9452 13.7399 30.4814 14.2219 30.3482C14.7045 30.2148 15.1688 30.4752 15.3047 30.9544L15.304 30.9546Z" fill="#FAFAFA"/>
</svg>
