<?xml version="1.0" encoding="utf-8"?>
<!-- Generator: Adobe Illustrator 23.0.1, SVG Export Plug-In . SVG Version: 6.00 Build 0)  -->
<svg version="1.1" id="Layer_1" xmlns="http://www.w3.org/2000/svg" xmlns:xlink="http://www.w3.org/1999/xlink" x="0px" y="0px"
	 viewBox="0 0 484.14011 141.73228" style="enable-background:new 0 0 484.14011 141.73228;" xml:space="preserve">
<style type="text/css">
	.st0{fill:#333332;}
	.st1{fill:#FF875B;}
</style>
<g>
	<path class="st0" d="M210.34273,44.06507c-10.98828,0-19.75928,5.03662-22.34521,12.83154
		c-0.21973,0.6626-0.14404,1.3833,0.20752,1.97705c0.3291,0.55566,0.87305,0.94287,1.49658,1.06592l9.80273,2.45996
		c1.02734,0.18945,2.04932-0.3623,2.44482-1.30957c1.12012-2.67871,4.21582-4.15381,8.71729-4.15381
		c5.94775,0,9.09131,2.86914,9.09131,8.29785v2.38232h-11.25293c-14.61523,0-23.34082,7.2041-23.34082,19.27148
		c0,13.05664,10.04736,17.70801,19.44971,17.70801c6.30566,0,11.51758-1.87598,15.14404-5.42383v2.33691
		c0,1.20996,0.96582,2.19434,2.15283,2.19434h9.94434c1.18701,0,2.15283-0.98438,2.15283-2.19434V63.89515
		C234.00777,52.21937,224.27632,44.06507,210.34273,44.06507z M219.75777,78.2555v4.94873
		c0,5.89258-6.10645,9.41406-12.00977,9.41406c-3.97656,0-8.22607-1.74023-8.22607-6.62402
		c0-4.91797,4.18018-7.73877,11.46924-7.73877H219.75777z"/>
	<path class="st0" d="M275.71335,45.18812c-1.51074-0.60498-3.17578-0.89941-5.09082-0.89941
		c-5.08594,0-9.22754,2.06836-12.33496,6.15283v-3.28857c0-1.20996-0.96484-2.19482-2.15234-2.19482h-9.94582
		c-1.18652,0-2.15186,0.98438-2.15186,2.19385v54.35693c0,1.20996,0.96582,2.19434,2.15283,2.19434h9.94484
		c1.1875,0,2.15234-0.98438,2.15234-2.19434V69.922c0-6.80957,4.91602-10.14062,9.8584-10.42725
		c1.7168-0.24072,2.6875-0.16162,3.78223,0.05566c1.22168,0.2417,2.37598-0.50781,2.64941-1.70947l2.6377-9.69727
		C277.48288,46.9098,276.83737,45.63929,275.71335,45.18812z"/>
	<path class="st0" d="M363.40964,44.06507c-11.55176,0-20.30566,6.53271-23.41113,17.4541
		c-1.01855,3.26025-1.45508,7.32959-1.33496,12.42041c0,6.25977,0.83496,11.29688,2.54395,15.37891
		c3.7832,9.70117,12.0459,15.16699,23.27246,15.38867c0.1377,0.00195,0.27441,0.00293,0.41211,0.00293
		c9.3457,0,17.36035-3.86523,22.04688-10.66309c0.66211-1.02832,0.49023-2.05664-0.48926-2.90039l-6.69922-5.6875
		c-0.62305-0.53711-1.20312-0.58691-1.58203-0.54297c-0.40039,0.05176-0.98828,0.27344-1.51953,1.04199
		c-2.66504,3.90039-6.35645,5.87793-10.95605,5.87793c-6.27637-0.10156-10.2627-2.64258-11.87891-7.63672
		c-0.47656-1.08203-0.68555-2.6543-0.86914-4.38135H386.436c1.2832,0,2.14648-0.87598,2.15234-2.18115
		c0.11328-3.77197,0.09668-6.73486-0.33008-9.82178C386.44186,52.05579,378.08151,44.06507,363.40964,44.06507z M374.20944,68.50843
		h-21.16797c0.12402-1.8667,0.36426-3.17139,0.79102-4.31445l0.01953-0.05859c1.37891-4.70996,4.68359-7.19922,9.55762-7.19922
		c5.24902,0,8.96582,2.85498,10.21289,7.8916C373.88718,65.64368,374.09421,66.95911,374.20944,68.50843z"/>
	<path class="st0" d="M424.35886,44.06507c-5.61035,0-10.00586,1.72852-13.09082,5.14209v-2.05518
		c0-1.25049-0.9248-2.19385-2.15234-2.19385h-9.94531c-1.22754,0-2.15234,0.94336-2.15234,2.19385v54.35693
		c0,1.25098,0.9248,2.19434,2.15234,2.19434h9.94531c1.22754,0,2.15234-0.94336,2.15234-2.19434V67.46644
		c0-6.29834,3.82715-10.53027,9.52344-10.53027c5.71875,0,9.41504,4.17676,9.41504,10.64111v33.93164
		c0,1.25098,0.9248,2.19434,2.15137,2.19434h9.94629c1.22656,0,2.15137-0.94336,2.15137-2.19434V64.89954
		C444.45554,52.24329,436.56784,44.06507,424.35886,44.06507z"/>
	<path class="st0" d="M481.98874,44.95814h-10.71289V32.04847c0-0.68408-0.30469-1.31543-0.83691-1.73194
		c-0.5166-0.40527-1.17773-0.54932-1.80859-0.3916l-9.4248,2.32031c-0.96484,0.23828-1.63867,1.11133-1.63867,2.12354v10.58936
		h-5.37109c-1.18652,0-2.15137,0.98438-2.15137,2.19385v7.81299c0,1.20996,0.96484,2.19482,2.15234,2.19482h5.37012v31.521
		c0.12207,13.39844,8.69238,15.24512,17.93555,15.24512c0.91406,0,1.82812-0.02637,2.75586-0.05469
		c0.9375-0.02734,1.8877-0.05664,2.86621-0.05664l0.10938-0.00684c1.25977-0.16211,2.04199-1.04297,2.04199-2.29883v-8.37207
		c0-1.20996-0.96484-2.19336-2.15137-2.19336h-3.24316c-4.69141,0-6.60547-2.08105-6.60547-7.18164V57.1598h10.71289
		c1.18652,0,2.15137-0.98438,2.15137-2.19434v-7.81348C484.14011,45.94251,483.17526,44.95814,481.98874,44.95814z"/>
	<path class="st0" d="M328.02585,44.95814h-9.90625c-1.22461,0-2.14746,0.94092-2.14746,2.18848v1.4751
		c-3.28906-3.06152-7.56738-4.55322-13.03711-4.55322c-9.67773,0-17.58203,5.93652-20.62012,15.4707
		c-1.56934,4.48877-1.77051,10.05469-1.77051,14.40186c0,5.70557,0.4541,10.05029,1.43555,13.69775
		c3.4248,11.43457,13.45996,15.50781,21.70898,15.50781c5.14062,0,9.26953-1.4502,12.28125-4.30273
		c-0.05566,4.77832-1.30762,8.21777-3.82227,10.50684c-3.29297,2.99609-8.86621,4.07422-17.11914,3.30078
		c-2.13281,0-2.3623,1.45215-2.3623,2.0459l-0.32324,9.14746c0,1.28027,0.7207,2.1377,1.95117,2.29688
		c2.04395,0.21191,4.03125,0.31738,5.95117,0.31738c9.23047,0,16.91797-2.42676,22.02539-7.03125
		c5.24316-4.72754,7.90137-11.65234,7.90137-20.58301V47.14661C330.17233,45.89906,329.24948,44.95814,328.02585,44.95814z
		 M315.97214,73.82972c0,6.15527-0.2334,7.74316-0.73047,9.69385c-1.13184,4.67188-4.55664,7.35156-9.39844,7.35156
		c-4.78613,0-8.50586-2.80859-9.97168-7.57031c-0.46484-1.19873-1.01855-3.7959-1.01855-9.36377
		c0-4.3999,0.39062-7.40625,1.24805-9.51514c1.58301-4.78516,5.09473-7.52979,9.63379-7.52979
		c4.80762,0,8.32031,2.78613,9.40918,7.49951C315.7319,66.42152,315.97214,67.84193,315.97214,73.82972z"/>
</g>
<path class="st1" d="M97.45042,0H57.561c-1.33331,0-2.40221,1.10717-2.43088,2.48345
	c-0.80571,38.67787-20.4041,75.38773-54.13895,101.38952c-1.07052,0.82513-1.3147,2.37559-0.53182,3.49324l23.33906,33.31924
	c0.79414,1.13373,2.34118,1.38939,3.42967,0.55595c21.09314-16.15079,38.05938-35.63654,50.27765-57.23302
	c12.21826,21.59647,29.1845,41.08223,50.27764,57.23302c1.08849,0.83344,2.63553,0.57777,3.42967-0.55595l23.33905-33.31924
	c0.78288-1.11765,0.5387-2.66811-0.53183-3.49325C120.2854,77.87118,100.68701,41.16132,99.8813,2.48345
	C99.85263,1.10717,98.78373,0,97.45042,0z"/>
</svg>
