<svg width="888" height="213" viewBox="0 0 888 213" fill="none" xmlns="http://www.w3.org/2000/svg">
<g clip-path="url(#clip0_2324_61965)">
<path d="M117.956 17.5523C118.277 18.0969 117.852 18.7701 117.219 18.7701C104.415 18.7701 94.0057 28.908 93.7614 41.5056C89.3767 40.687 84.8335 40.6255 80.3454 41.3816C80.0354 28.8416 69.6526 18.7701 56.8898 18.7701C56.2569 18.7701 55.8311 18.0964 56.153 17.5514C62.3513 7.05378 73.8693 0 87.0542 0C100.239 0 111.758 7.0542 117.956 17.5523Z" fill="url(#paint0_linear_2324_61965)"/>
<path d="M155.88 95.4658C160.236 96.7847 164.34 92.9567 162.696 88.713C150.48 57.1763 114.326 44.2564 86.8783 44.2564C59.3781 44.2564 22.4173 57.5941 10.9973 88.9097C9.45975 93.1258 13.5531 96.8278 17.8439 95.513L83.6193 75.3578C85.5179 74.776 87.5468 74.7727 89.4474 75.3482L155.88 95.4658Z" fill="url(#paint1_linear_2324_61965)"/>
<path d="M10.3556 101.537L83.6749 79.3004C85.5622 78.728 87.5766 78.7264 89.4647 79.2959L163.245 101.548C169.406 103.406 173.622 109.081 173.622 115.517V182.561C173.336 198.926 158.635 212.042 142.275 212.042H115.103C112.417 212.042 110.242 209.87 110.242 207.184V183.678C110.242 174.422 115.72 166.044 124.196 162.336C135.559 157.366 149.001 150.643 151.53 137.152C152.346 132.797 149.506 128.597 145.163 127.734C134.181 125.551 122.005 126.394 111.71 130.999C100.021 136.227 96.9638 144.923 95.8318 156.602L94.4599 169.184C94.0406 173.029 90.4355 175.975 86.5691 175.975C82.5694 175.975 79.5703 172.929 79.1366 168.951L77.7901 156.602C76.8205 146.598 75.0629 136.881 64.7214 132.255C52.9248 126.979 41.0699 125.227 28.4587 127.734C24.1154 128.597 21.276 132.797 22.092 137.152C24.6424 150.76 37.9793 157.329 49.4256 162.336C57.9023 166.044 63.3802 174.422 63.3802 183.678V207.18C63.3802 209.866 61.2058 212.042 58.5199 212.042H31.3465C14.9869 212.042 0.285713 198.926 0 182.561V115.499C0 109.072 4.20537 103.402 10.3556 101.537Z" fill="url(#paint2_linear_2324_61965)"/>
<path d="M228 186.156V68H282.945C296.019 68 306.106 70.7374 313.207 76.2123C320.308 81.6871 323.858 89.1732 323.858 98.6704C323.858 105.709 321.716 111.687 317.433 116.603C313.263 121.52 307.515 124.816 300.189 126.492V123.81C308.755 125.263 315.348 128.503 319.969 133.531C324.703 138.447 327.07 144.872 327.07 152.804C327.07 163.307 323.294 171.52 315.743 177.441C308.304 183.251 297.991 186.156 284.805 186.156H228ZM253.19 166.715H281.592C288.13 166.715 293.145 165.486 296.639 163.028C300.133 160.57 301.88 156.659 301.88 151.296C301.88 145.821 300.133 141.911 296.639 139.564C293.145 137.106 288.13 135.877 281.592 135.877H253.19V166.715ZM253.19 116.603H278.211C285.086 116.603 290.158 115.374 293.427 112.916C296.695 110.458 298.33 106.771 298.33 101.855C298.33 97.0503 296.695 93.419 293.427 90.9609C290.158 88.5028 285.086 87.2737 278.211 87.2737H253.19V116.603Z" fill="#1A1A1A"/>
<path d="M343.856 186.156V123.642C343.856 119.955 343.743 116.212 343.518 112.413C343.405 108.615 343.123 104.872 342.673 101.184H367.186L370.06 125.989H366.172C367.299 119.955 369.102 114.983 371.582 111.073C374.174 107.162 377.33 104.257 381.049 102.358C384.882 100.458 389.221 99.5084 394.067 99.5084C396.209 99.5084 397.899 99.6201 399.139 99.8436C400.379 99.9553 401.619 100.235 402.858 100.682L402.689 122.972C400.322 121.966 398.294 121.352 396.603 121.128C395.025 120.793 392.996 120.626 390.517 120.626C385.783 120.626 381.838 121.52 378.683 123.307C375.64 125.095 373.329 127.721 371.751 131.184C370.286 134.648 369.553 138.838 369.553 143.754V186.156H343.856Z" fill="#1A1A1A"/>
<path d="M446.011 188C438.573 188 432.036 186.212 426.4 182.637C420.765 179.061 416.369 173.978 413.213 167.385C410.058 160.793 408.48 152.86 408.48 143.587C408.48 134.425 410.058 126.547 413.213 119.955C416.369 113.363 420.765 108.335 426.4 104.872C432.036 101.296 438.573 99.5084 446.011 99.5084C452.886 99.5084 459.029 101.184 464.439 104.536C469.962 107.777 473.568 112.19 475.259 117.777H473.399L475.428 101.184H499.942C499.604 104.872 499.266 108.615 498.928 112.413C498.702 116.101 498.589 119.732 498.589 123.307V186.156H473.23L473.061 170.235H475.09C473.287 175.598 469.68 179.899 464.27 183.14C458.86 186.38 452.774 188 446.011 188ZM453.788 168.894C459.649 168.894 464.383 166.827 467.989 162.693C471.596 158.559 473.399 152.19 473.399 143.587C473.399 134.983 471.596 128.67 467.989 124.648C464.383 120.626 459.649 118.615 453.788 118.615C447.927 118.615 443.194 120.626 439.587 124.648C435.98 128.67 434.177 134.983 434.177 143.587C434.177 152.19 435.924 158.559 439.418 162.693C443.025 166.827 447.815 168.894 453.788 168.894Z" fill="#1A1A1A"/>
<path d="M552.83 188C545.392 188 538.855 186.212 533.219 182.637C527.584 179.061 523.188 173.978 520.032 167.385C516.877 160.793 515.299 152.86 515.299 143.587C515.299 134.425 516.877 126.547 520.032 119.955C523.188 113.363 527.584 108.335 533.219 104.872C538.855 101.296 545.392 99.5084 552.83 99.5084C559.706 99.5084 565.848 101.184 571.258 104.536C576.781 107.777 580.387 112.19 582.078 117.777H580.218L582.247 101.184H606.761C606.423 104.872 606.085 108.615 605.747 112.413C605.521 116.101 605.409 119.732 605.409 123.307V186.156H580.049L579.88 170.235H581.909C580.106 175.598 576.499 179.899 571.089 183.14C565.679 186.38 559.593 188 552.83 188ZM560.607 168.894C566.468 168.894 571.202 166.827 574.808 162.693C578.415 158.559 580.218 152.19 580.218 143.587C580.218 134.983 578.415 128.67 574.808 124.648C571.202 120.626 566.468 118.615 560.607 118.615C554.746 118.615 550.013 120.626 546.406 124.648C542.799 128.67 540.996 134.983 540.996 143.587C540.996 152.19 542.743 158.559 546.237 162.693C549.844 166.827 554.634 168.894 560.607 168.894Z" fill="#1A1A1A"/>
<path d="M650.371 186.156L613.346 101.184H640.227L664.741 162.86H659.162L684.521 101.184H709.712L672.349 186.156H650.371Z" fill="#1A1A1A"/>
<path d="M757.228 188C748.099 188 740.153 186.212 733.391 182.637C726.741 178.95 721.556 173.81 717.837 167.218C714.23 160.626 712.427 152.749 712.427 143.587C712.427 134.536 714.23 126.715 717.837 120.123C721.556 113.531 726.741 108.447 733.391 104.872C740.153 101.296 748.099 99.5084 757.228 99.5084C766.358 99.5084 774.304 101.296 781.066 104.872C787.828 108.447 793.013 113.531 796.62 120.123C800.339 126.715 802.199 134.536 802.199 143.587C802.199 152.749 800.339 160.626 796.62 167.218C793.013 173.81 787.828 178.95 781.066 182.637C774.304 186.212 766.358 188 757.228 188ZM757.228 168.894C763.089 168.894 767.71 166.827 771.091 162.693C774.585 158.559 776.332 152.19 776.332 143.587C776.332 134.983 774.585 128.67 771.091 124.648C767.71 120.626 763.089 118.615 757.228 118.615C751.368 118.615 746.69 120.626 743.196 124.648C739.815 128.67 738.124 134.983 738.124 143.587C738.124 152.19 739.815 158.559 743.196 162.693C746.69 166.827 751.368 168.894 757.228 168.894Z" fill="#1A1A1A"/>
<path d="M850.299 188C842.635 188 835.647 187.162 829.336 185.486C823.024 183.81 817.67 181.464 813.275 178.447L819.868 161.687C824.264 164.369 829.11 166.492 834.407 168.056C839.817 169.62 845.171 170.402 850.468 170.402C855.427 170.402 859.091 169.62 861.457 168.056C863.824 166.492 865.008 164.369 865.008 161.687C865.008 159.453 864.219 157.721 862.641 156.492C861.176 155.263 858.865 154.369 855.709 153.81L838.296 150.626C830.97 149.173 825.391 146.492 821.559 142.581C817.727 138.67 815.811 133.587 815.811 127.33C815.811 121.855 817.276 117.05 820.206 112.916C823.249 108.67 827.589 105.374 833.224 103.028C838.859 100.682 845.453 99.5084 853.004 99.5084C859.429 99.5084 865.515 100.291 871.263 101.855C877.011 103.419 881.914 105.821 885.971 109.061L879.04 125.318C875.546 122.749 871.488 120.682 866.867 119.117C862.359 117.553 858.02 116.771 853.85 116.771C848.44 116.771 844.551 117.665 842.184 119.453C839.817 121.128 838.634 123.307 838.634 125.989C838.634 128 839.31 129.676 840.663 131.017C842.128 132.358 844.326 133.363 847.256 134.034L864.839 137.218C872.39 138.559 878.138 141.073 882.083 144.76C886.028 148.447 888 153.531 888 160.011C888 165.933 886.422 170.961 883.266 175.095C880.11 179.229 875.659 182.413 869.91 184.648C864.275 186.883 857.738 188 850.299 188Z" fill="#1A1A1A"/>
</g>
<defs>
<linearGradient id="paint0_linear_2324_61965" x1="85.109" y1="-11.4503" x2="161.236" y2="213.05" gradientUnits="userSpaceOnUse">
<stop stop-color="#F5D45E"/>
<stop offset="1" stop-color="#FF9600"/>
</linearGradient>
<linearGradient id="paint1_linear_2324_61965" x1="85.1085" y1="-11.4503" x2="161.236" y2="213.05" gradientUnits="userSpaceOnUse">
<stop stop-color="#F5D45E"/>
<stop offset="1" stop-color="#FF9600"/>
</linearGradient>
<linearGradient id="paint2_linear_2324_61965" x1="85.1088" y1="-11.4503" x2="161.236" y2="213.05" gradientUnits="userSpaceOnUse">
<stop stop-color="#F5D45E"/>
<stop offset="1" stop-color="#FF9600"/>
</linearGradient>
<clipPath id="clip0_2324_61965">
<rect width="888" height="213" fill="white"/>
</clipPath>
</defs>
</svg>
