<svg width="800" height="800" viewBox="0 0 800 800" fill="none" xmlns="http://www.w3.org/2000/svg">
<rect width="800" height="800" fill="#F5F5F5"/>
<path d="M-1461 -4453C-1461 -4454.1 -1460.1 -4455 -1459 -4455H7092C7093.1 -4455 7094 -4454.1 7094 -4453V7300C7094 7301.1 7093.1 7302 7092 7302H-1459C-1460.1 7302 -1461 7301.1 -1461 7300V-4453Z" fill="#E5E5E5"/>
<path d="M-1459 -4454H7092V-4456H-1459V-4454ZM7093 -4453V7300H7095V-4453H7093ZM7092 7301H-1459V7303H7092V7301ZM-1460 7300V-4453H-1462V7300H-1460ZM-1459 7301C-1459.55 7301 -1460 7300.55 -1460 7300H-1462C-1462 7301.66 -1460.66 7303 -1459 7303V7301ZM7093 7300C7093 7300.55 7092.55 7301 7092 7301V7303C7093.66 7303 7095 7301.66 7095 7300H7093ZM7092 -4454C7092.55 -4454 7093 -4453.55 7093 -4453H7095C7095 -4454.66 7093.66 -4456 7092 -4456V-4454ZM-1459 -4456C-1460.66 -4456 -1462 -4454.66 -1462 -4453H-1460C-1460 -4453.55 -1459.55 -4454 -1459 -4454V-4456Z" fill="black" fill-opacity="0.1"/>
<g clip-path="url(#clip0_1532_25202)">
<rect width="1422.22" height="800" fill="#C4C4C4"/>
<rect width="1422.22" height="888.889" transform="translate(0 -44.4453)" fill="#0D0C1E"/>
<g opacity="0.35" filter="url(#filter0_f_1532_25202)">
<ellipse cx="811.185" cy="418.206" rx="638.711" ry="248.604" transform="rotate(22.3747 811.185 418.206)" fill="#3847A1"/>
</g>
<g filter="url(#filter1_f_1532_25202)">
<ellipse cx="1299.54" cy="324.525" rx="238.148" ry="434.815" transform="rotate(-15.7048 1299.54 324.525)" fill="#353197"/>
</g>
<g filter="url(#filter2_f_1532_25202)">
<ellipse cx="1573.03" cy="83.2613" rx="978.272" ry="250.404" transform="rotate(48.2511 1573.03 83.2613)" fill="#812A8E"/>
</g>
<g filter="url(#filter3_f_1532_25202)">
<ellipse cx="1299.54" cy="386.007" rx="238.148" ry="434.815" transform="rotate(-15.7048 1299.54 386.007)" fill="#4C68EE" fill-opacity="0.46"/>
</g>
<g opacity="0.35" filter="url(#filter4_f_1532_25202)">
<ellipse cx="811.185" cy="418.206" rx="638.711" ry="248.604" transform="rotate(22.3747 811.185 418.206)" fill="#00176A"/>
</g>
<g opacity="0.35" filter="url(#filter5_f_1532_25202)">
<ellipse cx="403.037" cy="418.206" rx="638.711" ry="248.604" transform="rotate(22.3747 403.037 418.206)" fill="#00176A"/>
</g>
<g filter="url(#filter6_f_1532_25202)">
<ellipse cx="766.954" cy="461.564" rx="238.148" ry="434.815" transform="rotate(-15.7048 766.954 461.564)" fill="#1C4C84"/>
</g>
<g filter="url(#filter7_f_1532_25202)">
<ellipse cx="999.929" cy="393.501" rx="686.062" ry="335.877" transform="rotate(-113.566 999.929 393.501)" fill="#00F0FF" fill-opacity="0.54"/>
</g>
<g filter="url(#filter8_f_1532_25202)">
<ellipse cx="1104.51" cy="-24.3391" rx="353.381" ry="249.473" transform="rotate(39.8078 1104.51 -24.3391)" fill="#DABBD3"/>
</g>
<g filter="url(#filter9_f_1532_25202)">
<ellipse cx="899.21" cy="481.903" rx="198.148" ry="337.627" transform="rotate(-36.4402 899.21 481.903)" fill="#447489"/>
</g>
<g clip-path="url(#clip1_1532_25202)">
<path d="M235.844 627.183C229.644 627.183 223.533 626.628 217.556 625.502C206.356 623.391 198.993 612.606 201.104 601.406C203.215 590.206 214 582.843 225.2 584.954C243.459 588.391 264.741 582.702 285.126 568.924C305.437 555.191 321.919 535.287 330.348 514.317C343.341 481.991 343.585 463.28 343.919 437.383C344.096 423.68 344.296 408.154 346.341 388.48C348.63 366.332 352.97 333.265 364.23 302.035C375.83 269.85 392.689 244.28 415.756 223.872C445.496 197.532 487.007 180.117 535.793 173.524C547.081 171.998 557.474 179.917 559 191.206C560.526 202.495 552.615 212.887 541.319 214.413C512.978 218.243 472.926 228.354 443.104 254.776C402.881 290.369 392.363 344.495 387.385 392.746C385.533 410.576 385.348 424.48 385.178 437.932C384.815 465.998 384.496 490.235 368.63 529.709C357.207 558.132 335.193 584.887 308.23 603.109C284.844 618.917 259.733 627.183 235.852 627.183H235.844Z" fill="url(#paint0_linear_1532_25202)"/>
</g>
<path d="M185.489 344.441C169.933 344.441 157.067 350.597 149.844 361.397C147.193 356.523 143.489 352.627 138.815 349.804C132.919 346.249 125.57 344.441 116.956 344.441C104.6 344.441 94.0815 347.893 86.3556 354.441V350.708C86.3556 347.56 83.8222 345.093 80.5852 345.093C77.3482 345.093 74.8148 347.56 74.8148 350.708L74.8444 352.93V423.367C74.8444 426.515 77.3778 428.982 80.6148 428.982C83.8519 428.982 86.3852 426.515 86.3852 423.367V370.501C91.4148 361.301 103.059 355.375 116.141 355.375C125.459 355.375 132.163 357.567 136.637 362.078C141.089 366.56 143.348 373.604 143.348 383.004V423.345C143.348 426.493 145.881 428.96 149.119 428.96C152.356 428.96 154.889 426.493 154.889 423.345V382.827C154.889 374.049 158.17 366.819 164.385 361.923C169.674 357.753 177.059 355.36 184.644 355.36C193.963 355.36 200.667 357.553 205.148 362.064C209.6 366.545 211.859 373.59 211.859 382.99V423.33C211.859 426.478 214.393 428.945 217.63 428.945C220.867 428.945 223.4 426.478 223.4 423.33V382.338C223.4 370.908 220 361.382 213.556 354.79C206.956 348.034 197.252 344.456 185.489 344.456V344.441Z" fill="white"/>
<path d="M312.837 345.102C311.748 345.102 310.785 345.339 309.963 345.799C309.081 346.302 308.363 347.065 307.822 348.065L276.978 412.525L246.704 348.539C245.674 346.117 243.748 345.391 242.459 345.184L242.355 345.08H241.437C238.341 345.08 235.822 347.525 235.822 350.532C235.822 351.458 236.074 352.125 236.222 352.532L236.348 352.873L270.948 425.087L268.881 429.458C264.17 439.354 258.511 444.687 252.081 445.31C249.148 445.584 247.015 447.873 247.015 450.754C247.015 453.636 249.533 456.206 252.644 456.206C253.007 456.206 253.859 456.206 254.711 456.013C264.881 454.295 273.104 446.873 279.155 433.962L317.837 353.05C318.022 352.717 318.17 352.31 318.281 351.85C318.355 351.539 318.444 351.065 318.444 350.554C318.444 347.547 315.926 345.102 312.83 345.102H312.837Z" fill="white"/>
<path d="M527.444 345.07C524.593 345.07 522.689 347.048 522.126 348.855L501.763 408.885L482.037 349.33C482.037 349.33 482.03 349.307 482.022 349.293L481.956 349.078C481.037 346.559 479.03 345.07 476.541 345.07C474.052 345.07 471.859 346.715 471.037 349.337L451.311 408.885L430.963 348.885C430.4 347.048 428.489 345.07 425.637 345.07C422.541 345.07 420.022 347.515 420.022 350.544C420.022 350.73 420.022 350.974 420.059 351.255C420.096 351.552 420.17 351.848 420.304 352.233L446.03 425.826L446.059 425.907C446.474 426.981 447.104 427.848 447.926 428.478C448.867 429.204 450.052 429.589 451.341 429.589C453.844 429.589 455.941 428.048 456.815 425.552L476.541 366.004L496.267 425.552C497.17 428.041 499.274 429.589 501.748 429.589C503.022 429.589 504.2 429.204 505.141 428.485C505.97 427.848 506.607 426.981 507.022 425.915L532.793 352.174C532.904 351.811 532.978 351.53 533.015 351.255C533.052 350.974 533.059 350.737 533.059 350.53C533.059 347.522 530.541 345.078 527.444 345.078V345.07Z" fill="white"/>
<path d="M620.341 345.101C617.104 345.101 614.57 347.568 614.57 350.716V353.864C607.452 347.775 597.6 344.449 586.518 344.449C575.437 344.449 564.052 348.879 555.718 356.916C547.304 365.034 542.674 375.783 542.674 387.19C542.674 410.849 562.341 430.094 586.518 430.094C597.755 430.094 607.392 426.849 614.57 420.679V423.353C614.57 426.501 617.104 428.968 620.341 428.968C623.578 428.968 626.111 426.501 626.111 423.353V350.708C626.111 347.56 623.578 345.094 620.341 345.094V345.101ZM614.57 370.308V404.397C609.659 413.383 598.689 419.175 586.518 419.175C569.104 419.175 554.392 404.523 554.392 387.183C554.392 369.842 569.104 355.346 586.518 355.346C598.726 355.346 609.704 361.205 614.57 370.301V370.308Z" fill="white"/>
<path d="M712.363 356.975C704.007 348.894 693.074 344.449 681.57 344.449C670.067 344.449 660.637 347.775 653.518 353.864V350.716C653.518 347.568 650.985 345.101 647.748 345.101C644.511 345.101 641.978 347.568 641.978 350.716V450.308C641.978 453.457 644.511 455.923 647.748 455.923C650.985 455.923 653.518 453.457 653.518 450.308V420.679C660.637 426.768 670.489 430.094 681.57 430.094C705.748 430.094 725.415 410.849 725.415 387.19C725.415 375.842 720.778 365.116 712.363 356.975ZM713.696 387.19C713.696 395.642 710.333 403.649 704.222 409.738C698.111 415.827 690.067 419.183 681.57 419.183C669.237 419.183 658.267 413.397 653.518 404.42V370.294C658.215 361.212 669.185 355.353 681.57 355.353C698.985 355.353 713.696 369.931 713.696 387.19Z" fill="white"/>
</g>
<defs>
<filter id="filter0_f_1532_25202" x="-132.741" y="-262.081" width="1887.85" height="1360.57" filterUnits="userSpaceOnUse" color-interpolation-filters="sRGB">
<feFlood flood-opacity="0" result="BackgroundImageFix"/>
<feBlend mode="normal" in="SourceGraphic" in2="BackgroundImageFix" result="shape"/>
<feGaussianBlur stdDeviation="172.84" result="effect1_foregroundBlur_1532_25202"/>
</filter>
<filter id="filter1_f_1532_25202" x="745.489" y="-395.349" width="1108.11" height="1439.75" filterUnits="userSpaceOnUse" color-interpolation-filters="sRGB">
<feFlood flood-opacity="0" result="BackgroundImageFix"/>
<feBlend mode="normal" in="SourceGraphic" in2="BackgroundImageFix" result="shape"/>
<feGaussianBlur stdDeviation="148.148" result="effect1_foregroundBlur_1532_25202"/>
</filter>
<filter id="filter2_f_1532_25202" x="598.899" y="-961.863" width="1948.26" height="2090.25" filterUnits="userSpaceOnUse" color-interpolation-filters="sRGB">
<feFlood flood-opacity="0" result="BackgroundImageFix"/>
<feBlend mode="normal" in="SourceGraphic" in2="BackgroundImageFix" result="shape"/>
<feGaussianBlur stdDeviation="148.148" result="effect1_foregroundBlur_1532_25202"/>
</filter>
<filter id="filter3_f_1532_25202" x="745.489" y="-333.867" width="1108.11" height="1439.75" filterUnits="userSpaceOnUse" color-interpolation-filters="sRGB">
<feFlood flood-opacity="0" result="BackgroundImageFix"/>
<feBlend mode="normal" in="SourceGraphic" in2="BackgroundImageFix" result="shape"/>
<feGaussianBlur stdDeviation="148.148" result="effect1_foregroundBlur_1532_25202"/>
</filter>
<filter id="filter4_f_1532_25202" x="-132.741" y="-262.081" width="1887.85" height="1360.57" filterUnits="userSpaceOnUse" color-interpolation-filters="sRGB">
<feFlood flood-opacity="0" result="BackgroundImageFix"/>
<feBlend mode="normal" in="SourceGraphic" in2="BackgroundImageFix" result="shape"/>
<feGaussianBlur stdDeviation="172.84" result="effect1_foregroundBlur_1532_25202"/>
</filter>
<filter id="filter5_f_1532_25202" x="-540.889" y="-262.081" width="1887.85" height="1360.57" filterUnits="userSpaceOnUse" color-interpolation-filters="sRGB">
<feFlood flood-opacity="0" result="BackgroundImageFix"/>
<feBlend mode="normal" in="SourceGraphic" in2="BackgroundImageFix" result="shape"/>
<feGaussianBlur stdDeviation="172.84" result="effect1_foregroundBlur_1532_25202"/>
</filter>
<filter id="filter6_f_1532_25202" x="212.899" y="-258.31" width="1108.11" height="1439.75" filterUnits="userSpaceOnUse" color-interpolation-filters="sRGB">
<feFlood flood-opacity="0" result="BackgroundImageFix"/>
<feBlend mode="normal" in="SourceGraphic" in2="BackgroundImageFix" result="shape"/>
<feGaussianBlur stdDeviation="148.148" result="effect1_foregroundBlur_1532_25202"/>
</filter>
<filter id="filter7_f_1532_25202" x="340.68" y="-496.568" width="1318.5" height="1780.14" filterUnits="userSpaceOnUse" color-interpolation-filters="sRGB">
<feFlood flood-opacity="0" result="BackgroundImageFix"/>
<feBlend mode="normal" in="SourceGraphic" in2="BackgroundImageFix" result="shape"/>
<feGaussianBlur stdDeviation="123.457" result="effect1_foregroundBlur_1532_25202"/>
</filter>
<filter id="filter8_f_1532_25202" x="591.965" y="-518.375" width="1025.09" height="988.071" filterUnits="userSpaceOnUse" color-interpolation-filters="sRGB">
<feFlood flood-opacity="0" result="BackgroundImageFix"/>
<feBlend mode="normal" in="SourceGraphic" in2="BackgroundImageFix" result="shape"/>
<feGaussianBlur stdDeviation="98.7654" result="effect1_foregroundBlur_1532_25202"/>
</filter>
<filter id="filter9_f_1532_25202" x="346.723" y="-110.486" width="1104.97" height="1184.78" filterUnits="userSpaceOnUse" color-interpolation-filters="sRGB">
<feFlood flood-opacity="0" result="BackgroundImageFix"/>
<feBlend mode="normal" in="SourceGraphic" in2="BackgroundImageFix" result="shape"/>
<feGaussianBlur stdDeviation="148.148" result="effect1_foregroundBlur_1532_25202"/>
</filter>
<linearGradient id="paint0_linear_1532_25202" x1="530.527" y1="142.894" x2="161.567" y2="639.301" gradientUnits="userSpaceOnUse">
<stop stop-color="#68ECF2"/>
<stop offset="1" stop-color="#3C4EAC"/>
</linearGradient>
<clipPath id="clip0_1532_25202">
<rect width="800" height="800" rx="400" fill="white"/>
</clipPath>
<clipPath id="clip1_1532_25202">
<rect width="358.444" height="453.852" fill="white" transform="translate(200.741 173.332)"/>
</clipPath>
</defs>
</svg>
