<svg width="800" height="800" viewBox="0 0 800 800" fill="none" xmlns="http://www.w3.org/2000/svg">
<path d="M78.992 449.536C71.7387 449.536 65.552 448.171 60.432 445.44C55.312 442.624 50.96 438.784 47.376 433.92L55.312 427.264C58.4693 431.445 61.968 434.645 65.808 436.864C69.648 438.997 74.1707 440.064 79.376 440.064C85.776 440.064 90.64 438.528 93.968 435.456C97.3813 432.384 99.088 428.288 99.088 423.168C99.088 418.901 97.808 415.616 95.248 413.312C92.688 411.008 88.464 409.173 82.576 407.808L75.28 406.144C67.088 404.267 60.816 401.451 56.464 397.696C52.1973 393.856 50.064 388.48 50.064 381.568C50.064 377.643 50.7893 374.144 52.24 371.072C53.6907 368 55.696 365.44 58.256 363.392C60.9013 361.344 64.016 359.808 67.6 358.784C71.2693 357.675 75.28 357.12 79.632 357.12C86.3733 357.12 92.1333 358.357 96.912 360.832C101.776 363.307 105.872 366.933 109.2 371.712L101.136 377.6C98.6613 374.187 95.6747 371.499 92.176 369.536C88.6773 367.573 84.3253 366.592 79.12 366.592C73.4027 366.592 68.88 367.829 65.552 370.304C62.3093 372.693 60.688 376.32 60.688 381.184C60.688 385.451 62.0533 388.693 64.784 390.912C67.6 393.045 71.824 394.752 77.456 396.032L84.752 397.696C93.5413 399.659 99.8987 402.645 103.824 406.656C107.749 410.667 109.712 416 109.712 422.656C109.712 426.752 108.987 430.464 107.536 433.792C106.171 437.12 104.165 439.936 101.52 442.24C98.8747 444.544 95.632 446.336 91.792 447.616C88.0373 448.896 83.7707 449.536 78.992 449.536ZM156.734 368.128V448H145.982V368.128H117.566V358.656H185.15V368.128H156.734ZM247.465 448L238.505 421.632H202.409L193.449 448H182.569L213.801 358.656H227.497L258.729 448H247.465ZM220.713 368.64H220.073L204.969 412.16H235.817L220.713 368.64ZM284.281 448H273.529V358.656H309.113C316.964 358.656 323.065 360.832 327.417 365.184C331.854 369.536 334.073 375.808 334.073 384C334.073 390.571 332.537 395.989 329.465 400.256C326.478 404.437 322.041 407.211 316.153 408.576L336.633 448H324.473L305.145 409.6H284.281V448ZM309.113 400.384C313.38 400.384 316.665 399.275 318.969 397.056C321.358 394.837 322.553 391.68 322.553 387.584V380.928C322.553 376.832 321.358 373.675 318.969 371.456C316.665 369.237 313.38 368.128 309.113 368.128H284.281V400.384H309.113ZM378.828 404.096L366.156 418.176V448H355.404V358.656H366.156V406.144H366.54L379.34 390.656L406.348 358.656H419.532L386.252 396.928L421.836 448H408.524L378.828 404.096ZM462.385 449.536C454.876 449.536 448.476 448.171 443.185 445.44C437.98 442.709 433.5 439.04 429.745 434.432L439.729 425.088C442.886 428.928 446.342 431.829 450.097 433.792C453.937 435.755 458.289 436.736 463.153 436.736C468.87 436.736 473.18 435.456 476.081 432.896C478.982 430.336 480.433 426.88 480.433 422.528C480.433 419.029 479.409 416.256 477.361 414.208C475.313 412.16 471.686 410.624 466.481 409.6L458.545 408.192C449.841 406.571 443.313 403.712 438.961 399.616C434.609 395.52 432.433 389.888 432.433 382.72C432.433 378.795 433.158 375.253 434.609 372.096C436.145 368.853 438.236 366.165 440.881 364.032C443.612 361.813 446.897 360.107 450.737 358.912C454.577 357.717 458.886 357.12 463.665 357.12C470.406 357.12 476.252 358.315 481.201 360.704C486.15 363.008 490.374 366.379 493.873 370.816L483.761 379.776C481.457 376.789 478.641 374.4 475.313 372.608C471.985 370.816 467.846 369.92 462.897 369.92C457.777 369.92 453.809 370.944 450.993 372.992C448.177 375.04 446.769 378.027 446.769 381.952C446.769 385.707 447.921 388.523 450.225 390.4C452.529 392.192 456.113 393.557 460.977 394.496L468.913 396.16C477.873 397.867 484.401 400.768 488.497 404.864C492.678 408.96 494.769 414.592 494.769 421.76C494.769 425.941 494.044 429.739 492.593 433.152C491.142 436.565 489.009 439.509 486.193 441.984C483.462 444.373 480.092 446.251 476.081 447.616C472.07 448.896 467.505 449.536 462.385 449.536ZM545.669 449.536C533.978 449.536 524.805 445.611 518.149 437.76C511.493 429.824 508.165 418.347 508.165 403.328C508.165 395.819 509.018 389.205 510.725 383.488C512.432 377.771 514.906 372.949 518.149 369.024C521.392 365.099 525.317 362.155 529.925 360.192C534.618 358.144 539.866 357.12 545.669 357.12C553.434 357.12 559.92 358.827 565.125 362.24C570.416 365.653 574.554 370.688 577.541 377.344L565.381 384C563.845 379.733 561.456 376.363 558.213 373.888C555.056 371.328 550.874 370.048 545.669 370.048C538.757 370.048 533.338 372.395 529.413 377.088C525.488 381.781 523.525 388.267 523.525 396.544V410.112C523.525 418.389 525.488 424.875 529.413 429.568C533.338 434.261 538.757 436.608 545.669 436.608C551.045 436.608 555.397 435.243 558.725 432.512C562.138 429.696 564.656 426.112 566.277 421.76L577.925 428.8C574.938 435.285 570.757 440.363 565.381 444.032C560.005 447.701 553.434 449.536 545.669 449.536ZM648.691 448L640.627 423.808H607.219L599.411 448H584.691L615.155 358.656H633.331L663.795 448H648.691ZM624.243 371.968H623.603L610.675 411.392H637.043L624.243 371.968ZM701.697 398.592L691.841 379.648H691.457V448H677.633V358.656H693.761L722.945 408.064L732.801 427.008H733.185V358.656H747.009V448H730.881L701.697 398.592Z" fill="#28286E"/>
</svg>
