<svg xmlns="http://www.w3.org/2000/svg" width="22" height="39" viewBox="0 0 22 39" fill="none">
  <path d="M18.2349 4.54168C18.2349 4.54168 16.2591 4.13926 14.8343 4.39756C13.4094 4.65586 13.7451 4.79566 13.2952 5.57367C12.8453 6.35167 13.1827 5.92475 13.7537 6.04807C14.3247 6.17139 13.627 6.20072 13.0294 6.37638C12.4318 6.55205 11.7277 6.3529 11.3108 7.0604C10.8941 7.77783 10.3691 8.99536 10.3691 8.99536L15.3486 8.14122L17.3632 7.11096L18.2349 4.54168Z" fill="url(#paint0_linear_1358_2506)"/>
  <path d="M17.4079 6.70176C17.4079 6.70176 14.8932 7.32836 13.3118 7.6109C11.7305 7.89343 10.9985 7.94359 10.7472 8.32836C10.4959 8.71312 9.9984 9.66146 10.4446 9.38064C10.8909 9.09981 12.5935 8.78409 12.2275 9.12233C11.8611 9.45064 11.2441 9.55726 10.1597 10.1242C9.07526 10.6912 9.07139 10.5521 8.69157 11.3381C8.30303 12.1244 9.15217 11.5739 9.56489 11.3437C9.98634 11.1133 9.93217 11.3633 8.98982 12.0158C8.04747 12.6683 8.21772 12.1963 7.66406 13.3252C7.66406 13.3252 10.1234 12.5908 12.4492 11.7607C14.7662 10.9308 16.4845 9.29237 16.4845 9.29237L17.4079 6.70176Z" fill="url(#paint1_linear_1358_2506)"/>
  <path d="M16.3244 9.19665C16.3244 9.19665 14.5094 10.8079 11.9788 11.4946C9.43952 12.1815 9.08594 12.3405 8.43251 12.7066C7.7788 13.0628 7.77879 13.0628 7.56519 13.5459C7.35132 14.0191 7.81364 13.6881 8.2844 13.347C8.75516 13.0058 10.6333 12.4069 11.3289 12.6162C12.0158 12.8258 11.573 12.9176 11.0226 13.2212C10.481 13.5246 8.8249 13.6302 7.38002 15.0522C5.93515 16.4743 5.76367 18.1592 5.76367 18.1592C5.76367 18.1592 7.8828 15.8634 10.8446 15.6121C13.8064 15.3608 15.0694 12.4228 15.0694 12.4228L16.3244 9.19665Z" fill="url(#paint2_linear_1358_2506)"/>
  <path d="M14.6434 12.9619C14.6434 12.9619 14.0851 13.9219 11.8062 14.5519C9.52725 15.1818 7.19736 15.863 6.58004 16.586C5.96244 17.299 5.61404 18.2731 5.80681 18.2975C5.99959 18.322 8.43192 16.614 9.08822 16.6654C9.74452 16.7168 9.67859 16.8578 8.93111 17.2961C8.18391 17.7443 6.37061 18.1626 5.67642 18.9474C4.98223 19.7322 4.73047 21.0415 4.73047 21.0415L8.2019 19.3345L12.2666 19.1818C12.2666 19.1818 12.7753 18.0045 13.3235 16.9951C13.8717 15.9857 14.6434 12.9619 14.6434 12.9619Z" fill="url(#paint3_linear_1358_2506)"/>
  <path d="M13.0996 17.2801C13.0996 17.2801 12.1476 18.2112 9.59016 18.5606C7.03304 18.92 5.69658 19.2156 5.12051 20.1661C4.5357 21.1169 4.62057 21.3432 5.23718 20.9085C5.85378 20.4738 10.4441 19.4416 10.338 20.0211C10.2321 20.6106 9.10928 20.4231 7.0989 20.9761C5.08852 21.529 4.33817 21.5498 3.60647 23.4989C3.60647 23.4989 6.97992 23.9221 8.90388 23.4014C10.8363 22.8705 10.6991 23.5901 11.509 22.2553C12.3102 20.9208 13.0996 17.2801 13.0996 17.2801Z" fill="url(#paint4_linear_1358_2506)"/>
  <path d="M11.5452 21.6987C11.5452 21.6987 10.9854 22.2909 7.79899 22.628C4.60385 22.9653 3.93981 22.6358 3.48241 23.7719C3.03372 24.9078 2.8013 25.3417 3.66054 24.8407C4.51951 24.3297 7.30154 23.8945 7.07673 24.2884C6.85165 24.6725 4.05526 24.5911 3.26283 25.9254C2.47039 27.2597 2.27539 28.7266 2.27539 28.7266C2.27539 28.7266 3.86637 27.2209 6.90209 27.1167L9.44635 26.6086C9.44635 26.6086 10.088 26.1335 10.8123 23.9162C11.5452 21.6988 11.5452 21.6987 11.5452 21.6987Z" fill="url(#paint5_linear_1358_2506)"/>
  <path d="M9.99168 26.0056C9.99168 26.0056 9.12995 26.4173 6.65567 26.6153C4.18138 26.8133 3.04228 26.9841 2.58073 27.9712C2.11919 28.9583 2.10929 29.5451 2.44891 29.1977C2.78852 28.8502 5.5272 28.4262 4.91198 28.9105C4.29704 29.4048 2.90757 29.3639 2.43067 30.1128C1.95378 30.8618 1.85547 32.0376 1.85547 32.0376C1.85547 32.0376 6.52263 31.5699 7.81559 30.0229C9.10828 28.4659 9.99168 26.0056 9.99168 26.0056Z" fill="url(#paint6_linear_1358_2506)"/>
  <path d="M7.88576 29.8024C7.88576 29.8024 4.48728 31.9349 1.9765 31.4479C1.9765 31.4479 1.62269 32.5414 2.10145 32.4883C2.58022 32.4352 4.62312 32.11 3.96372 32.5757C3.30432 33.0414 1.91248 33.2292 1.62532 33.8934C1.33816 34.5575 0.990041 35.5414 1.53292 35.5959C2.07579 35.6505 2.13946 36.0563 1.56107 36.6092C0.982679 37.1621 1.14149 37.5355 1.06836 38.989C1.06836 38.989 5.553 35.7229 7.88576 29.8024Z" fill="url(#paint7_linear_1358_2506)"/>
  <path d="M7.30847 36.877C7.39937 36.3774 7.65027 34.0938 7.10478 35.2026C6.55085 36.3215 6.90298 36.7392 5.1348 37.524C3.36662 38.3088 3.38959 38.507 3.25264 38.2921C3.1157 38.0772 3.61297 37.1189 2.9861 37.8123C2.35922 38.5058 1.45387 38.9187 1.08008 38.9788C1.08008 38.9788 3.5281 36.8926 5.03594 34.5939C6.54404 32.3052 8.07646 29.3199 8.67136 28.4186C9.26654 27.5272 9.94895 33.8609 9.62231 34.6753C9.29567 35.4896 7.2015 37.4268 7.30847 36.877Z" fill="url(#paint8_linear_1358_2506)"/>
  <path d="M12.1344 32.0005C12.1344 32.0005 11.1298 33.2413 10.8867 33.606C10.6439 33.9805 10.7351 32.8645 10.6028 31.8741C10.4705 30.8836 10.1036 29.3031 9.9592 31.3352C9.81483 33.3673 10.1254 34.1739 9.61385 34.9337C9.09361 35.6938 9.13338 35.5535 8.81608 35.7612C8.5075 35.9686 8.70687 33.7162 8.38561 31.8959C8.06435 30.0755 7.83833 30.1117 8.10528 29.3487C8.37223 28.5857 10.3671 24.9612 10.827 23.9145C11.2782 22.868 12.1344 32.0005 12.1344 32.0005Z" fill="url(#paint9_linear_1358_2506)"/>
  <path d="M10.5138 24.4917C10.6023 24.2208 12.2453 19.2441 12.6429 18.4675C13.0404 17.691 13.375 24.3923 13.9795 26.0358C14.5837 27.6693 14.9233 27.3218 14.625 27.8968C14.1939 28.724 13.2156 30.2822 13.1978 29.9546C13.1799 29.627 12.0462 23.7035 12.0335 25.1354C12.0209 26.5674 12.667 30.3372 12.5808 31.0057C12.4946 31.6742 12.0435 32.0943 11.816 32.3889C11.816 32.3889 11.0856 30.3016 10.8613 28.2002C10.637 26.0988 10.2564 25.2842 10.5138 24.4917Z" fill="url(#paint10_linear_1358_2506)"/>
  <path d="M13.5123 16.1538C13.5123 16.1538 11.8957 19.2508 12.1997 20.7634C12.5037 22.276 14.2595 28.5899 14.1922 28.6813C14.0328 28.9144 14.9106 27.8262 14.8874 26.9918C14.8643 26.1573 14.4138 23.7739 14.6138 24.0566C14.8137 24.3394 15.0013 26.6903 15.2436 26.2959C15.4861 25.9114 15.8312 25.7626 16.0527 25.2494C16.2742 24.7362 13.9431 15.943 13.5123 16.1538Z" fill="url(#paint11_linear_1358_2506)"/>
  <path d="M18.1389 4.75246L16.5347 8.2965C16.5347 8.2965 17.3838 12.4583 19.2128 13.2327C19.2128 13.2327 19.3263 12.6032 19.0741 12.0137C18.822 11.4242 17.8478 9.0454 18.014 7.79808C18.1889 6.55051 18.951 9.78026 19.3932 9.04224C19.8442 8.30396 18.3858 4.20876 18.1389 4.75246Z" fill="url(#paint12_linear_1358_2506)"/>
  <path d="M13.595 15.7854C13.595 15.7854 14.6388 12.4955 15.0504 11.5993C15.4621 10.703 17.6022 18.9051 17.6022 18.9051C17.6022 18.9051 17.6806 20.1555 17.5946 20.5158C17.5086 20.8761 17.2751 22.2148 17.1169 21.235C17.0644 20.9183 16.7674 19.0277 16.2425 18.0481C15.7176 17.0685 15.685 16.8408 16.4108 20.6481C17.1368 24.4654 15.9006 25.5437 15.9006 25.5437C15.9006 25.5437 14.7398 20.2174 14.1976 18.9301C13.6554 17.6428 13.2731 16.7686 13.595 15.7854Z" fill="url(#paint13_linear_1358_2506)"/>
  <path d="M16.544 8.29666C16.544 8.29666 17.4623 12.4367 19.222 13.2329C19.222 13.2329 19.1696 13.8606 18.6384 13.597C18.1072 13.3334 19.1151 14.7271 19.0327 15.2165C18.9502 15.7059 18.6314 17.1166 18.4056 16.8445C18.1797 16.5724 17.0935 12.6756 16.7982 12.7335C16.503 12.7914 17.8294 15.9061 18.234 17.5849C18.6387 19.2638 17.7877 20.0629 17.5995 20.5155C17.5995 20.5155 16.4079 16.2836 15.6931 14.1262C14.9783 11.9689 15.064 11.5986 15.064 11.5986L16.544 8.29666Z" fill="url(#paint14_linear_1358_2506)"/>
  <path d="M19.3258 9.13516C19.3258 9.13516 18.0405 5.92989 17.8018 5.50903L18.2293 4.5527C18.2293 4.5527 19.9489 7.67631 19.704 8.28956C19.4588 8.89287 19.3728 9.25315 19.3258 9.13516Z" fill="url(#paint15_linear_1358_2506)"/>
  <path d="M1.06836 38.989C2.67387 37.6918 3.66267 36.5111 4.67102 35.0912C5.68809 33.6711 6.58816 32.125 7.42604 30.5409C8.26393 28.9568 9.25913 27.3783 10.0078 25.727C10.7565 24.0758 11.3119 22.3802 12.0074 20.7006L12.4517 19.4058C12.6233 18.9835 12.795 18.5612 12.9579 18.1391L13.4553 16.8726L13.9528 15.6062L14.9387 13.0635C15.2732 12.2192 15.599 11.375 15.9336 10.5306C16.6026 8.84182 17.2807 7.16273 17.9768 5.50302C18.1487 5.09063 18.329 4.66807 18.501 4.25569C18.6816 3.84306 18.8622 3.43044 19.0428 3.01781C19.2235 2.60518 19.4128 2.19231 19.5937 1.78962C19.6842 1.58827 19.7834 1.38668 19.8826 1.1851L20.0316 0.89265C20.0815 0.801791 20.1308 0.691061 20.1725 0.620311L20.1809 0.610131C20.2888 0.4083 20.2732 0.160198 20.1393 0.0545584C20.0054 -0.0510774 19.8154 0.0237896 19.6987 0.225864L19.699 0.235801C19.6325 0.356945 19.5917 0.4575 19.5334 0.558539L19.3849 0.87085C19.286 1.08237 19.1955 1.28372 19.0966 1.49524C18.9072 1.90811 18.7269 2.33067 18.5465 2.75323C18.3662 3.17579 18.1943 3.58818 18.0139 4.01074C17.8423 4.43306 17.6706 4.85537 17.499 5.27769C16.8212 6.96672 16.1609 8.65527 15.5098 10.3634C15.1842 11.2175 14.8672 12.0614 14.5504 12.9153L13.5996 15.4669L13.1286 16.7425L12.6489 18.0185C12.486 18.4405 12.3231 18.8626 12.1602 19.2847L11.7334 20.579C11.0643 22.2678 10.5264 23.9629 9.81286 25.6231C9.0906 27.2835 8.12156 28.8613 7.30141 30.4549C6.48997 32.0482 5.61664 33.6135 4.61729 35.043C3.62639 36.4624 2.63538 37.5636 1.06836 38.989Z" fill="url(#paint16_linear_1358_2506)"/>
  <defs>
    <linearGradient id="paint0_linear_1358_2506" x1="10.3462" y1="10.3763" x2="19.4914" y2="4.32912" gradientUnits="userSpaceOnUse">
      <stop stop-color="#54B948"/>
      <stop offset="0.3764" stop-color="#00A651"/>
      <stop offset="1" stop-color="#005826"/>
    </linearGradient>
    <linearGradient id="paint1_linear_1358_2506" x1="7.11089" y1="14.3356" x2="19.0571" y2="6.43619" gradientUnits="userSpaceOnUse">
      <stop stop-color="#54B948"/>
      <stop offset="0.3764" stop-color="#00A651"/>
      <stop offset="1" stop-color="#005826"/>
    </linearGradient>
    <linearGradient id="paint2_linear_1358_2506" x1="4.75221" y1="18.8063" x2="18.714" y2="9.57414" gradientUnits="userSpaceOnUse">
      <stop stop-color="#54B948"/>
      <stop offset="0.3764" stop-color="#00A651"/>
      <stop offset="1" stop-color="#005826"/>
    </linearGradient>
    <linearGradient id="paint3_linear_1358_2506" x1="4.23178" y1="22.2956" x2="17.1427" y2="13.7583" gradientUnits="userSpaceOnUse">
      <stop stop-color="#54B948"/>
      <stop offset="0.3764" stop-color="#00A651"/>
      <stop offset="1" stop-color="#005826"/>
    </linearGradient>
    <linearGradient id="paint4_linear_1358_2506" x1="3.60516" y1="25.2939" x2="15.1244" y2="17.6768" gradientUnits="userSpaceOnUse">
      <stop stop-color="#54B948"/>
      <stop offset="0.3764" stop-color="#00A651"/>
      <stop offset="1" stop-color="#005826"/>
    </linearGradient>
    <linearGradient id="paint5_linear_1358_2506" x1="1.47315" y1="29.3226" x2="13.2434" y2="21.5395" gradientUnits="userSpaceOnUse">
      <stop stop-color="#54B948"/>
      <stop offset="0.3764" stop-color="#00A651"/>
      <stop offset="1" stop-color="#005826"/>
    </linearGradient>
    <linearGradient id="paint6_linear_1358_2506" x1="1.07669" y1="32.4282" x2="11.3279" y2="25.6496" gradientUnits="userSpaceOnUse">
      <stop stop-color="#54B948"/>
      <stop offset="0.3764" stop-color="#00A651"/>
      <stop offset="1" stop-color="#005826"/>
    </linearGradient>
    <linearGradient id="paint7_linear_1358_2506" x1="0.118394" y1="36.4243" x2="9.23749" y2="30.4073" gradientUnits="userSpaceOnUse">
      <stop stop-color="#54B948"/>
      <stop offset="0.3764" stop-color="#00A651"/>
      <stop offset="1" stop-color="#005826"/>
    </linearGradient>
    <linearGradient id="paint8_linear_1358_2506" x1="5.74578" y1="41.0139" x2="4.77481" y2="29.8981" gradientUnits="userSpaceOnUse">
      <stop stop-color="#54B948"/>
      <stop offset="0.3764" stop-color="#00A651"/>
      <stop offset="1" stop-color="#005826"/>
    </linearGradient>
    <linearGradient id="paint9_linear_1358_2506" x1="10.6162" y1="38.4855" x2="9.47114" y2="25.3766" gradientUnits="userSpaceOnUse">
      <stop stop-color="#54B948"/>
      <stop offset="0.3764" stop-color="#00A651"/>
      <stop offset="1" stop-color="#005826"/>
    </linearGradient>
    <linearGradient id="paint10_linear_1358_2506" x1="13.2677" y1="35.6537" x2="11.9141" y2="20.1567" gradientUnits="userSpaceOnUse">
      <stop stop-color="#54B948"/>
      <stop offset="0.3764" stop-color="#00A651"/>
      <stop offset="1" stop-color="#005826"/>
    </linearGradient>
    <linearGradient id="paint11_linear_1358_2506" x1="14.7769" y1="31.7453" x2="13.5479" y2="17.6753" gradientUnits="userSpaceOnUse">
      <stop stop-color="#54B948"/>
      <stop offset="0.3764" stop-color="#00A651"/>
      <stop offset="1" stop-color="#005826"/>
    </linearGradient>
    <linearGradient id="paint12_linear_1358_2506" x1="20.204" y1="8.7141" x2="16.1328" y2="9.26572" gradientUnits="userSpaceOnUse">
      <stop stop-color="#54B948"/>
      <stop offset="0.3764" stop-color="#00A651"/>
      <stop offset="1" stop-color="#005826"/>
    </linearGradient>
    <linearGradient id="paint13_linear_1358_2506" x1="14.2343" y1="24.3212" x2="17.5042" y2="13.119" gradientUnits="userSpaceOnUse">
      <stop stop-color="#54B948"/>
      <stop offset="0.3764" stop-color="#00A651"/>
      <stop offset="1" stop-color="#005826"/>
    </linearGradient>
    <linearGradient id="paint14_linear_1358_2506" x1="15.7825" y1="19.3422" x2="18.6025" y2="9.68134" gradientUnits="userSpaceOnUse">
      <stop stop-color="#54B948"/>
      <stop offset="0.3764" stop-color="#00A651"/>
      <stop offset="1" stop-color="#005826"/>
    </linearGradient>
    <linearGradient id="paint15_linear_1358_2506" x1="17.4929" y1="6.07673" x2="21.0481" y2="7.6824" gradientUnits="userSpaceOnUse">
      <stop stop-color="#54B948"/>
      <stop offset="0.3764" stop-color="#00A651"/>
      <stop offset="1" stop-color="#005826"/>
    </linearGradient>
    <linearGradient id="paint16_linear_1358_2506" x1="-4.07628" y1="31.9142" x2="27.4326" y2="11.079" gradientUnits="userSpaceOnUse">
      <stop stop-color="#54B948"/>
      <stop offset="0.3764" stop-color="#00A651"/>
      <stop offset="1" stop-color="#005826"/>
    </linearGradient>
  </defs>
</svg>