<svg xmlns="http://www.w3.org/2000/svg" width="22" height="40" viewBox="0 0 22 40" fill="none">
  <g style="mix-blend-mode:luminosity">
    <path d="M2.30775 4.99731C2.30775 4.99731 4.30415 4.48453 5.77464 4.6624C7.24513 4.84026 6.90996 4.99869 7.41339 5.75021C7.91683 6.50173 7.54807 6.09443 6.97152 6.24963C6.39498 6.40483 7.1096 6.39492 7.73015 6.53674C8.35069 6.67857 9.05897 6.44018 9.52476 7.12315C9.99083 7.81606 10.5957 9.0022 10.5957 9.0022L5.45929 8.4291L3.34277 7.51362L2.30775 4.99731Z" fill="url(#paint0_linear_1358_2488)"/>
    <path d="M3.27445 7.10759C3.27445 7.10759 5.87942 7.59195 7.5112 7.78521C9.14297 7.97848 9.89387 7.98744 10.1722 8.35749C10.4506 8.72754 11.0123 9.64645 10.5405 9.39113C10.0688 9.13581 8.31114 8.91622 8.70421 9.23338C9.09701 9.5406 9.73348 9.61239 10.8735 10.1176C12.0135 10.6227 12.0096 10.4837 12.4419 11.2471C12.8831 12.0103 11.9845 11.5084 11.5498 11.3017C11.1062 11.0953 11.1756 11.3419 12.1752 11.9405C13.1748 12.539 12.9743 12.0774 13.6035 13.1733C13.6035 13.1733 11.0491 12.5782 8.62583 11.88C6.2115 11.1816 4.36361 9.64228 4.36361 9.64228L3.27445 7.10759Z" fill="url(#paint1_linear_1358_2488)"/>
    <path d="M4.52116 9.53776C4.52116 9.53776 6.46645 11.0446 9.09094 11.588C11.7244 12.1312 12.0946 12.2701 12.7829 12.5989C13.4709 12.9178 13.4709 12.9178 13.7163 13.3882C13.9615 13.8486 13.4704 13.5442 12.9702 13.23C12.47 12.9158 10.5171 12.4233 9.81807 12.6713C9.12793 12.9192 9.58553 12.986 10.165 13.2582C10.7356 13.5307 12.4338 13.5431 13.9902 14.8818C15.5465 16.2204 15.8164 17.8931 15.8164 17.8931C15.8164 17.8931 13.522 15.7199 10.4813 15.6354C7.4406 15.5509 5.98488 12.6884 5.98488 12.6884L4.52116 9.53776Z" fill="url(#paint2_linear_1358_2488)"/>
    <path d="M6.45148 13.2025C6.45148 13.2025 7.07597 14.1296 9.44013 14.6306C11.8043 15.1316 14.2234 15.6808 14.8948 16.368C15.566 17.0452 15.9767 17.9982 15.7811 18.0334C15.5855 18.0687 13.004 16.5 12.3363 16.5882C11.6685 16.6763 11.7438 16.8134 12.5322 17.209C13.321 17.6146 15.1974 17.9303 15.9509 18.6749C16.7043 19.4195 17.0352 20.7126 17.0352 20.7126L13.3919 19.2033L9.22971 19.2792C9.22971 19.2792 8.64379 18.1323 8.02685 17.1553C7.40992 16.1782 6.45148 13.2025 6.45148 13.2025Z" fill="url(#paint3_linear_1358_2488)"/>
    <path d="M8.27116 17.4273C8.27116 17.4273 9.29638 18.3035 11.9293 18.5087C14.5626 18.7238 15.9449 18.9439 16.587 19.8606C17.238 20.777 17.1639 21.0077 16.5094 20.6084C15.8549 20.209 11.1062 19.4363 11.2472 20.009C11.3885 20.5916 12.5254 20.3413 14.6108 20.7804C16.6962 21.2196 17.4641 21.1982 18.3213 23.1031C18.3213 23.1031 14.8979 23.7152 12.9026 23.3034C10.8981 22.8819 11.0787 23.5926 10.1761 22.3054C9.28243 21.0179 8.27116 17.4273 8.27116 17.4273Z" fill="url(#paint4_linear_1358_2488)"/>
    <path d="M10.1072 21.7517C10.1072 21.7517 10.7126 22.3115 13.9876 22.469C17.2716 22.6263 17.9316 22.26 18.4629 23.3687C18.9852 24.4776 19.2471 24.8978 18.3409 24.4458C17.4344 23.9838 14.5671 23.7056 14.8189 24.0863C15.0705 24.4571 17.9235 24.2188 18.8082 25.5065C19.6929 26.7942 19.9746 28.2478 19.9746 28.2478C19.9746 28.2478 18.2642 26.8339 15.1563 26.9004L12.5278 26.536C12.5278 26.536 11.8454 26.0976 10.9808 23.9245C10.1072 21.7517 10.1072 21.7517 10.1072 21.7517Z" fill="url(#paint5_linear_1358_2488)"/>
    <path d="M11.9368 25.9648C11.9368 25.9648 12.8405 26.3274 15.3801 26.3861C17.9196 26.4447 19.0932 26.5513 19.6203 27.511C20.1474 28.4706 20.1905 29.056 19.8239 28.7281C19.4573 28.4003 16.6349 28.1308 17.2908 28.5798C17.947 29.0388 19.3645 28.9198 19.8939 29.6408C20.4233 30.3618 20.5898 31.5303 20.5898 31.5303C20.5898 31.5303 15.7943 31.3255 14.3862 29.8535C12.9777 28.3715 11.9368 25.9648 11.9368 25.9648Z" fill="url(#paint6_linear_1358_2488)"/>
    <path d="M14.3026 29.6372C14.3026 29.6372 17.8952 31.5754 20.4335 30.9482C20.4335 30.9482 20.8565 32.0201 20.3643 31.994C19.8721 31.9679 17.7662 31.758 18.4662 32.1859C19.1662 32.6138 20.599 32.7231 20.9298 33.3701C21.2605 34.0171 21.6715 34.9799 21.1198 35.0648C20.5681 35.1498 20.5259 35.5585 21.148 36.0781C21.7701 36.5977 21.6288 36.9794 21.7852 38.4265C21.7852 38.4265 17.0189 35.4174 14.3026 29.6372Z" fill="url(#paint7_linear_1358_2488)"/>
    <path d="M15.2907 36.6684C15.1698 36.1747 14.7851 33.9087 15.4048 34.9851C16.0337 36.0712 15.6974 36.508 17.5483 37.1923C19.3992 37.8765 19.3869 38.0757 19.5148 37.8534C19.6426 37.6312 19.0807 36.7023 19.7602 37.3595C20.4397 38.0166 21.3881 38.378 21.7734 38.417C21.7734 38.417 19.1547 36.4716 17.4847 34.2612C15.8151 32.0608 14.0814 29.1662 13.4229 28.2997C12.7646 27.4432 12.4231 33.8054 12.8026 34.6001C13.1821 35.3948 15.4309 37.2113 15.2907 36.6684Z" fill="url(#paint8_linear_1358_2488)"/>
    <path d="M10.085 32.0706C10.085 32.0706 11.1813 33.253 11.4502 33.6034C11.7193 33.9638 11.5634 32.8546 11.643 31.8583C11.7225 30.8619 12.0087 29.2633 12.2704 31.2841C12.5321 33.3049 12.2601 34.1277 12.8255 34.8576C13.3998 35.5873 13.3513 35.4494 13.6872 35.6389C14.0141 35.8287 13.6839 33.5911 13.9099 31.7555C14.1359 29.92 14.3689 29.9433 14.0533 29.1965C13.7377 28.4497 11.4955 24.943 10.9668 23.9237C10.4469 22.9042 10.085 32.0706 10.085 32.0706Z" fill="url(#paint9_linear_1358_2488)"/>
    <path d="M11.3187 24.4823C11.213 24.2169 9.25451 19.3402 8.80465 18.5872C8.35479 17.8342 8.38928 24.5438 7.86389 26.2187C7.33822 27.8836 6.97166 27.5558 7.30885 28.1131C7.79581 28.9148 8.88305 30.4156 8.88287 30.0875C8.88269 29.7595 9.70854 23.7815 9.80186 25.2105C9.89518 26.6395 9.44671 30.4397 9.57235 31.1023C9.698 31.7649 10.1826 32.159 10.4317 32.4404C10.4317 32.4404 11.0607 30.3153 11.1719 28.2046C11.283 26.0939 11.6262 25.2592 11.3187 24.4823Z" fill="url(#paint10_linear_1358_2488)"/>
    <path d="M7.78617 16.3259C7.78617 16.3259 9.61213 19.3272 9.38648 20.8546C9.16082 22.3819 7.72125 28.7846 7.79517 28.872C7.97117 29.0957 7.01299 28.0586 6.9898 27.2242C6.96662 26.3897 7.29299 23.9847 7.10455 24.2782C6.91611 24.5718 6.85651 26.9296 6.58679 26.5494C6.31735 26.1791 5.95632 26.0499 5.70115 25.55C5.44598 25.0501 7.33419 16.1396 7.78617 16.3259Z" fill="url(#paint11_linear_1358_2488)"/>
    <path d="M2.41705 5.20236L4.25543 8.65074C4.25543 8.65074 3.62156 12.8538 1.79608 13.7297C1.79608 13.7297 1.64475 13.1075 1.86928 12.5048C2.09382 11.9021 2.95569 9.47224 2.71581 8.2362C2.46701 7.00041 1.86969 10.2679 1.37629 9.55589C0.873954 8.84411 2.13427 4.67336 2.41705 5.20236Z" fill="url(#paint12_linear_1358_2488)"/>
    <path d="M7.68055 15.9629C7.68055 15.9629 6.42921 12.7368 5.95817 11.865C5.48714 10.9933 3.76096 19.3028 3.76096 19.3028C3.76096 19.3028 3.75108 20.5557 3.85924 20.9106C3.9674 21.2655 4.2812 22.589 4.38782 21.6018C4.42363 21.2827 4.62094 19.3783 5.10232 18.3708C5.58369 17.3632 5.60413 17.134 5.0764 20.9762C4.54895 24.8283 5.87268 25.8354 5.87268 25.8354C5.87268 25.8354 6.75973 20.4522 7.24148 19.1365C7.72323 17.8208 8.06477 16.9265 7.68055 15.9629Z" fill="url(#paint13_linear_1358_2488)"/>
    <path d="M4.24685 8.65134C4.24685 8.65134 3.54099 12.8365 1.78751 13.7303C1.78751 13.7303 1.87632 14.3541 2.40436 14.0611C2.93239 13.768 1.9807 15.2161 2.09245 15.7002C2.20419 16.1842 2.60922 17.5747 2.82473 17.2904C3.04023 17.006 3.9313 13.0543 4.23628 13.0956C4.54126 13.1368 3.36078 16.3211 3.04159 18.02C2.72241 19.719 3.63687 20.469 3.85466 20.9104C3.85466 20.9104 4.83458 16.6182 5.44384 14.424C6.0531 12.2299 5.94467 11.865 5.94467 11.865L4.24685 8.65134Z" fill="url(#paint14_linear_1358_2488)"/>
    <path d="M1.45209 9.64479C1.45209 9.64479 2.58543 6.37233 2.80573 5.93872L2.31518 5.00789C2.31518 5.00789 0.733425 8.22322 1.01814 8.82175C1.30258 9.41035 1.41075 9.76524 1.45209 9.64479Z" fill="url(#paint15_linear_1358_2488)"/>
    <path d="M21.7852 38.4265C20.0717 37.2215 18.9949 36.0982 17.8847 34.7372C16.7656 33.3764 15.759 31.8833 14.8138 30.3487C13.8686 28.8142 12.763 27.294 11.9052 25.6874C11.0473 24.0808 10.3846 22.4191 9.57947 20.7812L9.05275 19.5133C8.85364 19.1013 8.65452 18.6893 8.46434 18.277L7.88488 17.0405L7.30541 15.8039L6.15513 13.3207C5.76585 12.4964 5.38548 11.6718 4.99619 10.8476C4.21762 9.19899 3.43039 7.5606 2.62585 5.94258C2.42702 5.54049 2.21898 5.12872 2.02014 4.72664C1.81238 4.32481 1.60462 3.92297 1.39686 3.52113C1.1891 3.1193 0.972411 2.71771 0.764925 2.32581C0.661182 2.12986 0.548509 1.93415 0.435837 1.73845L0.2671 1.45483C0.211039 1.36692 0.154431 1.25913 0.107851 1.19083L0.0986486 1.18114C-0.0229535 0.985689 -0.0209303 0.737097 0.109975 0.6241C0.240881 0.511107 0.439257 0.575183 0.569788 0.77039L0.570064 0.780328C0.644811 0.897548 0.692218 0.99565 0.757482 1.09326L0.926771 1.39674C1.03972 1.60238 1.14346 1.79833 1.25641 2.00396C1.4731 2.40555 1.68114 2.81732 1.88917 3.22909C2.09721 3.64086 2.29605 4.04294 2.50408 4.45471C2.70319 4.86673 2.90231 5.27875 3.10141 5.69076C3.88892 7.33908 4.65857 8.9879 5.41984 10.6568C5.80047 11.4913 6.1719 12.3161 6.5436 13.1508L7.65845 15.645L8.2114 16.8922L8.77328 18.1392C8.96346 18.5515 9.15364 18.9637 9.34382 19.376L9.85269 20.6443C10.6313 22.2929 11.2762 23.9551 12.0986 25.5727C12.9299 27.1899 14.0088 28.7109 14.9364 30.2559C15.8551 31.8011 16.8354 33.3148 17.9369 34.686C19.0292 36.0475 20.1038 37.0913 21.7852 38.4265Z" fill="url(#paint16_linear_1358_2488)"/>
  </g>
  <defs>
    <linearGradient id="paint0_linear_1358_2488" x1="10.6967" y1="10.3797" x2="1.13074" y2="4.65688" gradientUnits="userSpaceOnUse">
      <stop stop-color="#54B948"/>
      <stop offset="0.3764" stop-color="#00A651"/>
      <stop offset="1" stop-color="#005826"/>
    </linearGradient>
    <linearGradient id="paint1_linear_1358_2488" x1="14.2256" y1="14.1511" x2="1.72961" y2="6.6754" gradientUnits="userSpaceOnUse">
      <stop stop-color="#54B948"/>
      <stop offset="0.3764" stop-color="#00A651"/>
      <stop offset="1" stop-color="#005826"/>
    </linearGradient>
    <linearGradient id="paint2_linear_1358_2488" x1="16.8863" y1="18.4824" x2="2.2821" y2="9.7454" gradientUnits="userSpaceOnUse">
      <stop stop-color="#54B948"/>
      <stop offset="0.3764" stop-color="#00A651"/>
      <stop offset="1" stop-color="#005826"/>
    </linearGradient>
    <linearGradient id="paint3_linear_1358_2488" x1="17.6152" y1="21.9368" x2="4.11022" y2="13.8574" gradientUnits="userSpaceOnUse">
      <stop stop-color="#54B948"/>
      <stop offset="0.3764" stop-color="#00A651"/>
      <stop offset="1" stop-color="#005826"/>
    </linearGradient>
    <linearGradient id="paint4_linear_1358_2488" x1="18.4235" y1="24.8953" x2="6.3742" y2="17.6868" gradientUnits="userSpaceOnUse">
      <stop stop-color="#54B948"/>
      <stop offset="0.3764" stop-color="#00A651"/>
      <stop offset="1" stop-color="#005826"/>
    </linearGradient>
    <linearGradient id="paint5_linear_1358_2488" x1="20.8279" y1="28.7978" x2="8.51606" y2="21.4323" gradientUnits="userSpaceOnUse">
      <stop stop-color="#54B948"/>
      <stop offset="0.3764" stop-color="#00A651"/>
      <stop offset="1" stop-color="#005826"/>
    </linearGradient>
    <linearGradient id="paint6_linear_1358_2488" x1="21.4076" y1="31.8765" x2="10.6847" y2="25.4615" gradientUnits="userSpaceOnUse">
      <stop stop-color="#54B948"/>
      <stop offset="0.3764" stop-color="#00A651"/>
      <stop offset="1" stop-color="#005826"/>
    </linearGradient>
    <linearGradient id="paint7_linear_1358_2488" x1="22.6118" y1="35.8125" x2="13.0735" y2="30.1191" gradientUnits="userSpaceOnUse">
      <stop stop-color="#54B948"/>
      <stop offset="0.3764" stop-color="#00A651"/>
      <stop offset="1" stop-color="#005826"/>
    </linearGradient>
    <linearGradient id="paint8_linear_1358_2488" x1="17.12" y1="40.7111" x2="17.4572" y2="29.5572" gradientUnits="userSpaceOnUse">
      <stop stop-color="#54B948"/>
      <stop offset="0.3764" stop-color="#00A651"/>
      <stop offset="1" stop-color="#005826"/>
    </linearGradient>
    <linearGradient id="paint9_linear_1358_2488" x1="12.0007" y1="38.4602" x2="12.3983" y2="25.3063" gradientUnits="userSpaceOnUse">
      <stop stop-color="#54B948"/>
      <stop offset="0.3764" stop-color="#00A651"/>
      <stop offset="1" stop-color="#005826"/>
    </linearGradient>
    <linearGradient id="paint10_linear_1358_2488" x1="9.13151" y1="35.7817" x2="9.60161" y2="20.2315" gradientUnits="userSpaceOnUse">
      <stop stop-color="#54B948"/>
      <stop offset="0.3764" stop-color="#00A651"/>
      <stop offset="1" stop-color="#005826"/>
    </linearGradient>
    <linearGradient id="paint11_linear_1358_2488" x1="7.36978" y1="31.9641" x2="7.79659" y2="17.8458" gradientUnits="userSpaceOnUse">
      <stop stop-color="#54B948"/>
      <stop offset="0.3764" stop-color="#00A651"/>
      <stop offset="1" stop-color="#005826"/>
    </linearGradient>
    <linearGradient id="paint12_linear_1358_2488" x1="0.529336" y1="9.27381" x2="4.71888" y2="9.61647" gradientUnits="userSpaceOnUse">
      <stop stop-color="#54B948"/>
      <stop offset="0.3764" stop-color="#00A651"/>
      <stop offset="1" stop-color="#005826"/>
    </linearGradient>
    <linearGradient id="paint13_linear_1358_2488" x1="7.50678" y1="24.5213" x2="3.6856" y2="13.4685" gradientUnits="userSpaceOnUse">
      <stop stop-color="#54B948"/>
      <stop offset="0.3764" stop-color="#00A651"/>
      <stop offset="1" stop-color="#005826"/>
    </linearGradient>
    <linearGradient id="paint14_linear_1358_2488" x1="5.64542" y1="19.6369" x2="2.35003" y2="10.1049" gradientUnits="userSpaceOnUse">
      <stop stop-color="#54B948"/>
      <stop offset="0.3764" stop-color="#00A651"/>
      <stop offset="1" stop-color="#005826"/>
    </linearGradient>
    <linearGradient id="paint15_linear_1358_2488" x1="3.15333" y1="6.48818" x2="-0.355506" y2="8.35492" gradientUnits="userSpaceOnUse">
      <stop stop-color="#54B948"/>
      <stop offset="0.3764" stop-color="#00A651"/>
      <stop offset="1" stop-color="#005826"/>
    </linearGradient>
    <linearGradient id="paint16_linear_1358_2488" x1="26.6449" y1="31.0738" x2="-6.31385" y2="11.3561" gradientUnits="userSpaceOnUse">
      <stop stop-color="#54B948"/>
      <stop offset="0.3764" stop-color="#00A651"/>
      <stop offset="1" stop-color="#005826"/>
    </linearGradient>
  </defs>
</svg>